<svg width="100" height="52" viewBox="0 0 100 52" fill="none" xmlns="http://www.w3.org/2000/svg">
<path d="M12.1357 -0.000244141C13.4103 0.337132 14.816 0.444905 15.9359 1.0728C16.2523 1.25475 16.5281 1.49962 16.7462 1.79229C16.9643 2.08497 17.1201 2.41924 17.2039 2.77447C17.2878 3.12971 17.298 3.49836 17.2338 3.85767C17.1696 4.21699 17.0325 4.55934 16.8309 4.86359C16.0038 6.06081 14.8769 6.94876 13.0284 5.94132C9.89594 4.23804 5.54519 6.90425 4.69004 9.98514C3.8958 12.8599 4.43232 15.2285 6.56435 17.1474C9.14153 19.4738 12.445 19.5886 15.5493 16.9131C16.5451 16.0462 17.5408 15.9314 18.2788 16.5757C19.4128 17.5363 19.5721 18.4734 18.8153 19.7292C17.5127 21.8917 15.5634 23.0655 13.1549 23.7613C8.07317 25.2327 3.08047 21.9198 1.20616 17.7542C-0.951638 12.8692 -0.248772 7.29551 3.59357 3.39694C5.89897 1.06108 8.82055 0.182501 12.1357 -0.000244141Z" fill="#088CDA"/>
<path d="M43.1791 41.9799C43.821 39.794 44.47 37.6104 45.1003 35.4198C45.7422 33.187 46.335 30.9402 47.0097 28.7168C47.3729 27.5219 48.9074 26.7441 49.9336 27.14C51.1941 27.625 51.7119 28.8784 51.3253 30.1975C50.5404 32.8731 49.8587 35.5861 49.0738 38.2523C48.2889 40.9186 47.4221 43.5941 46.6067 46.2674C46.253 47.4388 46.0608 48.6595 45.5735 49.7606C44.7558 51.6045 42.8464 51.7895 41.7593 50.0746C40.7167 48.4345 39.885 46.6422 39.0743 44.8733C37.5046 41.4808 35.9934 38.0626 34.4776 34.6443C33.913 33.3698 33.4022 32.0671 32.8727 30.7832C32.3198 29.4361 32.8352 28.3747 34.3698 27.6672C35.2906 27.2431 36.5815 27.8148 37.0899 28.9394C38.2145 31.4275 39.3016 33.9344 40.4098 36.4366C41.2345 38.2898 42.0709 40.1384 42.9026 41.9893L43.1791 41.9799Z" fill="#FEA207"/>
<path d="M82.1811 43.222C82.7043 43.5116 83.2423 43.7736 83.793 44.0069C85.6834 44.712 87.7723 44.6651 89.6291 43.8757C89.8188 43.7785 89.9801 43.6341 90.0977 43.4563C90.9505 42.2849 92.389 42.0131 93.3965 42.8308C94.5421 43.7679 94.5679 44.9979 93.434 46.1741C91.8525 47.8141 89.8001 48.3834 87.6306 48.538C84.6856 48.7466 81.8741 48.3389 79.5875 46.2326C78.931 45.6534 78.3989 44.9469 78.0236 44.156C77.6482 43.365 77.4374 42.5061 77.4039 41.6312C77.2188 37.7326 78.3036 34.3683 81.6375 32.0793C83.7719 30.6126 86.1851 30.3361 88.6662 31.0882C89.7486 31.4162 91.0091 31.6458 91.801 32.3487C94.1298 34.3964 94.022 37.2688 90.5663 39.122C88.2398 40.3707 85.7774 41.3618 83.383 42.4817C83.0479 42.641 82.7527 42.8753 82.1811 43.222ZM81.7125 38.6604C82.0545 38.6604 82.3169 38.7377 82.5067 38.6604C84.4747 37.742 86.4357 36.8072 88.3803 35.8372C88.5514 35.7506 88.5818 35.3851 88.6943 35.1086C84.6997 34.6752 83.5423 34.4549 81.7219 38.6581L81.7125 38.6604Z" fill="#FEA207"/>
<path d="M87.7461 15.9152C88.8051 17.2811 91.804 17.8457 93.4534 17.4849C94.913 17.1639 95.9017 16.1846 97.1481 15.6106C98.1275 15.142 98.8257 15.7769 99.402 16.3627C99.9784 16.9484 100.304 17.8738 99.5988 18.5228C98.6616 19.3897 97.6191 20.3081 96.45 20.7439C94.9411 21.3062 93.2449 21.7279 91.6611 21.6435C88.5474 21.4772 85.5462 20.7064 83.8616 17.6466C83.4477 16.9303 83.1779 16.14 83.0674 15.3201C82.7956 12.6843 82.9924 10.0814 84.5036 7.79473C85.7945 5.84311 87.4744 4.51469 89.8922 3.96411C92.3101 3.41353 94.4913 3.95005 96.6163 4.96687C98.8725 6.04928 99.7206 9.29886 97.2793 11.213C94.8381 13.1271 91.9352 13.8956 89.269 15.2615C88.8004 15.5005 88.3084 15.6785 87.7461 15.9152ZM87.3619 11.8807C88.6598 11.2973 89.8266 10.7866 90.9817 10.2407C92.1367 9.69481 93.2191 9.17469 94.4773 8.57257C91.0285 6.61392 88.039 8.38748 87.3619 11.8807Z" fill="#078BDA"/>
<path d="M67.587 8.26372C67.7369 8.19109 67.9759 8.1536 68.0228 8.02943C68.9951 5.66779 71.9705 4.24566 74.9062 5.31168C77.2842 6.1762 79.2476 7.51633 81.0446 9.19853C82.216 10.2973 81.8763 12.8019 80.2363 13.0151C79.6041 13.0809 78.9673 12.9439 78.4182 12.6238C77.0242 11.778 75.7426 10.7495 74.3486 9.90139C73.843 9.62403 73.2507 9.54948 72.6922 9.69288C72.3196 9.80534 71.8745 10.4332 71.8792 10.8268C71.8839 11.2204 72.3337 11.8108 72.7226 11.9538C73.8566 12.3731 75.0655 12.6051 76.2369 12.9237C78.1745 13.4509 79.4772 14.7067 80.0324 16.5974C80.6228 18.6169 78.9641 21.8782 76.9867 22.7568C74.5243 23.851 72.1673 23.3051 69.958 22.0704C68.6319 21.3323 67.17 20.7279 66.5468 19.0832C66.0922 17.8836 66.781 17.3026 67.498 16.6606C68.154 16.0655 68.7748 16.0538 69.5386 16.6067C70.8764 17.5744 72.1486 18.7997 73.9901 18.6357C74.4001 18.5982 75.0093 18.3475 75.1358 18.0382C75.4099 17.3658 74.8593 17.2135 74.2666 17.0308C72.6102 16.5177 70.9982 15.8594 69.3582 15.3018C67.7182 14.7441 66.8068 11.0471 67.2848 9.76785C67.4339 9.26601 67.5459 8.75388 67.6198 8.2356L67.587 8.26372Z" fill="#088CDA"/>
<path d="M27.7368 21.8071C23.3697 21.8352 19.0681 17.543 19.3305 12.5011C19.5999 7.26239 23.3486 3.74806 27.7555 3.76446C32.6943 3.79492 36.5179 7.5412 36.5695 12.9509C36.614 17.9343 32.6123 21.6969 27.7368 21.8071ZM32.4858 12.9509C32.4989 11.7333 32.036 10.5587 31.1958 9.67731C30.3555 8.79594 29.2044 8.27747 27.9875 8.23235C25.5743 8.14566 22.9339 10.2683 22.9597 12.9767C22.9854 15.6851 25.5907 17.632 27.7227 17.6484C30.3257 17.6672 32.7576 15.425 32.4858 12.9509Z" fill="#088CDA"/>
<path d="M51.1894 9.58951C51.1894 11.1124 51.1379 12.6353 51.2011 14.1558C51.3089 16.6885 48.6052 19.0524 46.4216 19.5444C43.2985 20.2473 40.8151 19.3102 38.9923 16.7541C38.4923 16.0444 38.1958 15.2116 38.1348 14.3456C38.0177 11.8926 38.1161 9.42551 38.0598 6.97251C38.0411 6.2017 37.781 5.43792 37.6615 4.66476C37.5163 3.72761 37.5444 2.85839 38.3808 2.15319C38.7523 1.82404 39.2132 1.61269 39.705 1.54594C40.1968 1.4792 40.6973 1.56008 41.1431 1.77832C41.8951 2.11101 42.3145 2.82091 42.2911 3.80727C42.2185 6.61873 42.3145 9.4302 42.2419 12.2417C42.2109 12.7607 42.347 13.2761 42.6304 13.7121C42.9137 14.1481 43.3294 14.4818 43.8163 14.6642C44.463 14.9172 45.4821 14.6056 46.1592 14.2355C46.5903 14.0012 46.9253 13.2046 46.9441 12.6493C47.0214 10.0393 46.9699 7.42234 46.9745 4.80768C46.9745 3.46989 47.9656 2.2961 49.0831 2.27033C50.2546 2.24456 51.1683 3.34337 51.173 4.78894C51.1941 6.38913 51.1894 7.98932 51.1894 9.58951Z" fill="#098CDA"/>
<path d="M67.6084 8.2444C67.4397 8.3592 67.2101 8.43417 67.1164 8.59114C66.6665 9.3479 65.242 10.0601 64.5134 9.85865C63.2717 9.51424 62.461 8.64269 62.4634 7.57667C62.4657 6.79415 62.7937 5.96477 61.6223 5.6227C60.5961 5.3111 59.8511 5.76796 59.1201 6.28808C57.2926 7.58604 57.7144 9.52361 57.8151 11.3276C57.8737 12.5202 58.0681 13.7057 58.204 14.8959C58.3141 15.8541 58.4008 16.8147 58.539 17.7682C58.7358 19.1177 57.8854 20.3454 56.6647 20.4626C54.9333 20.6102 54.1016 19.912 54.0102 18.2977C53.8541 15.5847 53.6838 12.8732 53.4995 10.1632C53.3753 8.38731 53.2324 6.60906 53.0473 4.83784C52.9138 3.57268 53.4339 2.79952 54.6053 2.37546C55.6596 1.99357 56.3438 2.58866 57.0209 3.22593C57.163 3.38926 57.2915 3.56401 57.4051 3.74839C58.4875 2.67769 59.5137 1.82957 61.0295 1.62574C63.9558 1.23213 66.4182 3.31027 67.0812 5.81013C67.2944 6.61843 67.4209 7.45016 67.5849 8.27017L67.6084 8.2444Z" fill="#088CDA"/>
<path d="M67.5777 37.6053V47.6797C67.5777 49.4673 66.8303 50.3436 65.352 50.3998C64.1805 50.4443 63.0934 49.4627 63.0442 47.6914C62.9833 45.6227 63.0302 43.5515 63.0302 41.4828C63.0302 37.111 63.0137 32.7368 63.0419 28.3626C63.0622 27.6374 63.1676 26.9171 63.3558 26.2165C63.6604 24.9865 64.4898 24.4851 65.8323 24.6327C66.7905 24.7358 67.559 25.6097 67.5637 26.7109C67.5824 30.3423 67.5637 33.9738 67.5637 37.6053H67.5777Z" fill="#FEA106"/>
<path d="M70.8904 37.5724C70.8904 33.9479 70.8904 30.3094 70.8904 26.6967C70.8678 26.2518 70.9959 25.8123 71.2539 25.4493C71.512 25.0862 71.8849 24.8208 72.3125 24.6959C73.3293 24.3772 74.3883 24.5787 74.8897 25.633C75.2305 26.4016 75.4046 27.2336 75.4004 28.0743C75.4403 34.5454 75.4285 41.0164 75.4192 47.4875C75.4192 49.2493 74.4352 50.4278 73.0552 50.3927C72.0712 50.3692 70.8224 49.4344 70.8506 48.2185C70.9349 44.6737 70.881 41.1242 70.881 37.5771L70.8904 37.5724Z" fill="#FEA206"/>
<path d="M54.0544 44.1889C54.1903 41.3985 54.4011 38.6081 54.4363 35.8154C54.4574 34.159 55.6077 33.2382 56.6222 33.2007C57.8335 33.1422 58.9791 34.3722 58.9651 35.7779C58.9651 36.9728 58.7566 38.1653 58.7308 39.3625C58.6605 41.853 58.6535 44.3482 58.6066 46.841C58.5785 48.4319 57.6695 49.4534 56.3129 49.4487C54.9564 49.444 54.0239 48.3756 54.0239 46.7497C54.0239 45.8922 54.0239 45.0347 54.0239 44.1725L54.0544 44.1889Z" fill="#FEA309"/>
<path d="M58.7175 28.8855C58.7175 30.2491 57.8132 31.1886 56.5269 31.1863C55.4093 31.1863 54.1582 30.0336 54.2145 28.923C54.2848 27.5501 55.489 26.4255 56.4894 26.4958C57.8342 26.5895 58.7245 27.4611 58.7175 28.8855Z" fill="#FEA40E"/>
</svg>
