<svg width="274" height="167" viewBox="0 0 274 167" fill="none" xmlns="http://www.w3.org/2000/svg">
<path d="M4.67871 48.5L76.137 5.78644C77.2152 5.19269 78.4131 4.89581 79.7308 4.89581C81.7048 4.89581 83.3923 5.59373 84.7985 6.99477C86.21 8.39581 86.9131 10.0781 86.9131 12.0469C86.9131 14.6041 85.6839 16.6927 83.2308 18.2969L21.8245 54.9323L83.2308 91.5677C85.6839 93.1771 86.9131 95.2604 86.9131 97.8229C86.9131 99.7864 86.21 101.469 84.7985 102.87C83.3923 104.271 81.7048 104.969 79.7308 104.969C78.4131 104.969 77.2152 104.672 76.137 104.078L4.67871 61.3646C2.04329 59.6979 0.725586 57.5521 0.725586 54.9323C0.725586 52.3125 2.04329 50.1666 4.67871 48.5Z" fill="#373A3C"/>
<path d="M273.642 54.9323C273.642 57.5521 272.325 59.6979 269.689 61.3646L198.231 104.078C197.153 104.672 195.96 104.969 194.642 104.969C192.663 104.969 190.976 104.271 189.569 102.87C188.163 101.469 187.46 99.7864 187.46 97.8229C187.46 95.2604 188.684 93.1771 191.137 91.5677L252.543 54.9323L191.137 18.2969C188.684 16.6927 187.46 14.6041 187.46 12.0469C187.46 10.0781 188.163 8.39581 189.569 6.99477C190.976 5.59373 192.663 4.89581 194.642 4.89581C195.96 4.89581 197.153 5.19269 198.231 5.78644L269.689 48.5C272.325 50.1666 273.642 52.3125 273.642 54.9323Z" fill="#373A3C"/>
<path d="M172.33 51.8229C164.168 65.9063 146.08 70.7292 131.929 62.5938C117.778 54.4636 112.934 36.4636 121.106 22.3802C129.278 8.30211 147.361 3.47919 161.502 11.6042C175.653 19.7344 180.502 37.7396 172.33 51.8229ZM165.2 5.22919C165.189 5.22398 165.179 5.22398 165.163 5.20836C147.491 -4.92185 124.903 1.11981 114.7 18.6979C105.142 35.1823 109.851 55.9479 124.981 66.8646L118.147 78.6406L115.559 77.1563C115.038 76.849 114.361 77.0261 114.064 77.5521L90.8245 117.625C90.5172 118.141 90.6995 118.818 91.2203 119.115L103.111 125.948C103.627 126.245 104.304 126.063 104.611 125.547L127.851 85.474C128.147 84.9479 127.965 84.2865 127.444 83.9792L124.856 82.4896L130.022 73.5834L131.679 70.7136C148.757 78.3021 169.184 71.974 178.736 55.5C188.944 37.9011 182.887 15.4011 165.2 5.22919Z" fill="#EB5757"/>
<path d="M152.877 11.9011C139.2 14.4584 127.856 23.0365 121.491 34.6146C122.851 22.3229 132.851 12.3646 145.689 11.4323C148.158 11.2552 150.569 11.4271 152.877 11.9011Z" fill="#EB5757"/>
<path d="M74.6771 151.321V166.384H69.1562V142.092H74.6771L84.3438 157.175H84.4063V142.092H89.9271V166.384H84.4063L74.7396 151.321H74.6771Z" fill="#373A3C"/>
<path d="M111.188 142.092V146.946H102.813V151.78H110.834V156.634H102.813V161.53H111.188V166.384H97.292V142.092H111.188Z" fill="#373A3C"/>
<path d="M136.814 166.384L132.939 152.759L129.043 166.384H122.897L115.98 142.092H122.126L126.272 158.759H126.418L130.835 142.092H135.022L139.439 158.759H139.585L143.73 142.092H149.855L142.939 166.384H136.814Z" fill="#373A3C"/>
<path d="M155.005 142.092H162.547C164.807 142.092 166.614 142.582 167.963 143.55C169.323 144.524 170.005 146.103 170.005 148.28C170.005 150.712 168.994 152.446 166.984 153.488C170.442 154.103 172.172 156.144 172.172 159.613C172.172 161.655 171.463 163.295 170.047 164.53C168.63 165.769 166.682 166.384 164.213 166.384H155.005V142.092ZM160.526 151.613H160.984C162.218 151.613 163.135 151.399 163.734 150.967C164.343 150.54 164.651 149.832 164.651 148.842C164.651 147.191 163.427 146.363 160.984 146.363H160.526V151.613ZM160.526 162.113H162.276C164.984 162.113 166.338 161.212 166.338 159.405C166.338 158.321 165.994 157.55 165.317 157.092C164.635 156.623 163.619 156.384 162.276 156.384H160.526V162.113Z" fill="#EB5757"/>
<path d="M183.953 142.092V166.384H178.433V142.092H183.953Z" fill="#EB5757"/>
<path d="M205.22 142.092V146.946H196.845V151.78H204.866V156.634H196.845V161.53H205.22V166.384H191.324V142.092H205.22Z" fill="#EB5757"/>
</svg>
