<svg width="100" height="58" viewBox="0 0 100 58" fill="none" xmlns="http://www.w3.org/2000/svg">
<path d="M29.5405 12.4952C28.9726 12.7372 28.4079 12.987 27.8338 13.2198C27.1076 13.5161 26.8811 14.0204 26.8532 14.8225C26.7523 17.8046 26.5429 20.7821 26.3877 23.7207L22.5088 24.4034V20.6936L21.4724 20.3135C21.3731 19.1265 21.1915 17.9396 21.1853 16.7449C21.1543 11.1763 21.1714 5.60624 21.1714 0.0361328L27.9982 0.130778C27.8431 0.670722 27.5607 1.21687 27.5545 1.75061C27.5111 5.00889 27.5328 8.26717 27.5328 11.5254C27.52 11.7064 27.5237 11.8882 27.5436 12.0685C27.6367 12.5681 28.0603 12.7186 28.307 12.3788C28.8671 11.5813 29.1697 12.0049 29.5405 12.4952Z" fill="#584D8A"/>
<path d="M21.1698 0.0421185C21.1698 5.61223 21.1527 11.1823 21.1838 16.7509C21.1838 17.9394 21.3715 19.1263 21.4708 20.3195C19.8184 20.0092 18.3134 20.7725 16.7308 20.9696C16.5524 20.9913 16.377 21.0332 16.2017 21.0673C15.5221 21.0766 15.7486 20.5584 15.7471 20.2295C15.7368 13.7005 15.7368 7.17206 15.7471 0.644124C17.505 0.0219482 19.325 -0.0726971 21.1698 0.0421185Z" fill="#564883"/>
<path d="M12.1708 24.6159C11.2895 24.7882 10.4113 24.9774 9.5331 25.1248C9.10332 25.1962 8.91248 25.37 8.92489 25.8292C8.96118 26.6067 8.92534 27.3858 8.81783 28.1566C8.01858 27.1575 7.48009 25.9755 7.25076 24.7168C7.03453 23.6306 6.91768 22.5271 6.90166 21.4197C6.85511 18.4717 6.82253 15.5238 6.90166 12.5758C7.01182 8.38659 8.72784 4.99333 12.1475 2.50928C12.104 2.99181 12.0187 3.4759 12.0218 3.95999C12.0653 10.8469 12.1149 17.7322 12.1708 24.6159Z" fill="#544279"/>
<path d="M12.1708 24.6155C12.119 17.7328 12.0673 10.8496 12.0156 3.9658C12.0156 3.48171 12.0978 2.99762 12.1413 2.51508L15.7331 0.637695C15.7331 7.16667 15.7331 13.6951 15.7331 20.2231C15.7331 20.552 15.5082 21.0702 16.1877 21.0609C16.0869 23.1772 15.9395 25.292 15.9069 27.4099C15.8929 28.2353 15.6804 28.7194 14.8208 28.8265C14.5836 28.8756 14.3495 28.9383 14.1195 29.0142V24.3083L12.1708 24.6155Z" fill="#55457D"/>
<path d="M55.9046 49.3757C55.9046 47.2035 55.9046 45.0313 55.9046 42.8591C55.9046 41.8614 56.2522 41.4906 57.2452 41.5108C59.152 41.5511 61.0822 41.458 62.9565 41.7311C65.0852 42.0414 66.0006 43.3742 66.0006 45.5293C66.0006 48.1153 66.0006 50.6986 66.0006 53.2794C66.0006 55.72 64.612 57.2297 62.1326 57.3414C60.4057 57.4189 58.6711 57.3771 56.9411 57.3584C56.232 57.3584 55.9062 56.9349 55.9031 56.1172C55.901 53.8747 55.9015 51.6275 55.9046 49.3757ZM58.1047 55.2033C59.4049 55.2033 60.6276 55.3011 61.8285 55.1769C63.1566 55.0404 63.9417 54.7503 63.8719 53.1056C63.7648 50.5517 63.8083 47.9854 63.8626 45.4347C63.8812 44.5643 63.4933 44.0228 62.7532 43.9312C61.2156 43.7404 59.6578 43.7109 58.1063 43.6209L58.1047 55.2033Z" fill="#56437A"/>
<path d="M33.7468 1.17163C36.6145 1.92421 39.3251 3.18204 41.7513 4.88607C41.0748 4.84728 40.8529 5.20414 40.87 5.83407C40.9336 8.00626 40.9786 10.1893 41.0251 12.3677L34.6792 14.6035C34.8204 13.5174 33.8662 13.8277 33.4147 13.4833C33.3139 12.678 33.1385 11.8743 33.1261 11.0675C33.0889 8.49345 33.1075 5.91786 33.1153 3.34227C33.1215 2.56338 32.9151 1.71468 33.7468 1.17163Z" fill="#5B5597"/>
<path d="M6.88611 50.4257C6.88611 48.6663 6.9218 46.9068 6.8737 45.1504C6.83491 43.7338 7.47726 42.73 8.68748 42.1668C9.69136 41.6822 10.791 41.4284 11.9057 41.4241C13.0204 41.4198 14.122 41.6651 15.1296 42.1419C16.3708 42.7067 17.0147 43.7323 17.0007 45.1752C16.9666 48.7687 17.0007 52.3636 16.9697 55.957C16.9575 56.404 16.7864 56.8319 16.4872 57.1642C16.2886 57.3612 15.6804 57.3985 15.4383 57.2355C15.2707 57.1106 15.1307 56.9524 15.0271 56.7709C14.9235 56.5893 14.8586 56.3883 14.8363 56.1805C14.7758 54.3465 14.8084 52.5095 14.8084 50.674C14.8084 48.8633 14.7805 47.0526 14.8224 45.2435C14.8363 44.5888 14.571 44.2009 14.0062 44.0023C12.6586 43.5219 11.1864 43.5219 9.83873 44.0023C9.26931 44.2009 9.04123 44.6105 9.04589 45.2559C9.07537 48.8245 9.05364 52.3931 9.06606 55.9617C9.06606 56.5559 8.93728 57.0556 8.35854 57.3007C7.59983 57.6234 6.89542 57.0757 6.88922 56.1572C6.8768 54.2534 6.88611 52.3404 6.88611 50.4257Z" fill="#544279"/>
<path d="M45.1042 43.7109C44.4639 45.4983 43.8231 47.2857 43.1818 49.0731C42.315 51.4987 41.4497 53.9243 40.586 56.3499C40.3843 56.9178 40.1206 57.3926 39.4099 57.3724C38.6342 57.3522 38.1858 56.6571 38.479 55.8208C39.4332 53.0978 40.4061 50.3826 41.3758 47.6674C41.9292 46.1158 42.4872 44.5642 43.0499 43.0127C43.4269 41.9809 44.122 41.5061 45.2221 41.5108C46.3222 41.5154 47.0281 41.9933 47.3943 43.0267C48.9034 47.2459 50.4085 51.4671 51.9093 55.6905C52.1886 56.4756 51.9729 57.104 51.3756 57.3258C50.7084 57.5741 50.1778 57.2576 49.8706 56.3949C48.4359 52.395 47.0038 48.3945 45.5743 44.3936C45.4905 44.1608 45.3897 43.9281 45.2981 43.7047L45.1042 43.7109Z" fill="#56437A"/>
<path d="M33.7468 1.17164C32.9151 1.71469 33.1261 2.56805 33.1261 3.34383C33.1184 5.91942 33.0998 8.49501 33.137 11.0691C33.1494 11.8759 33.3247 12.6796 33.4256 13.4848L29.5467 12.4965C29.1821 12.0062 28.8733 11.5826 28.3054 12.3755C28.0587 12.723 27.6352 12.5725 27.5421 12.0652C27.5221 11.8848 27.5185 11.7031 27.5312 11.5221C27.5312 8.26383 27.5095 5.00555 27.5529 1.74727C27.5529 1.20578 27.8415 0.661179 27.9967 0.127441L33.7468 1.17164Z" fill="#5A5090"/>
<path d="M87.6511 24.5244C87.0848 24.6066 86.8753 24.8906 86.8753 25.5019C86.8862 27.6446 86.821 29.7889 86.7869 31.9316C86.7869 32.1984 86.7869 32.4653 86.7869 32.7322H86.5573C86.458 28.9464 86.3602 25.159 86.2594 21.3034H84.1663C84.1663 14.7216 84.1663 8.13992 84.1663 1.55819C84.1663 1.27271 84.2966 0.98877 84.3665 0.704834L87.6853 2.44258C87.5425 2.90805 87.2803 3.36266 87.2788 3.82502C87.2529 10.3499 87.2529 16.8747 87.2788 23.3995C87.285 23.7766 87.5239 24.1505 87.6511 24.5244Z" fill="#3CADC7"/>
<path d="M87.6511 24.524C87.5239 24.1501 87.2849 23.7762 87.2834 23.4023C87.2606 16.8764 87.2606 10.3516 87.2834 3.82775C87.2834 3.36229 87.5472 2.90613 87.6899 2.44531C88.9405 3.34367 90.1119 4.32115 90.8954 5.68342C90.2748 5.73773 90.3663 6.2063 90.3695 6.61436C90.4191 12.4069 90.4708 18.1994 90.5246 23.9919L87.6511 24.524Z" fill="#37B6CA"/>
<path d="M0.00805309 17.1696C0.00805309 14.7166 -0.0152203 12.2574 0.0173625 9.81057C0.0375328 8.35676 1.43394 7.57788 2.61778 8.31021C3.29271 8.72758 3.45097 9.36993 3.45097 10.1069C3.44476 14.4978 3.44476 18.8882 3.45097 23.2781C3.45097 23.7172 3.46183 24.1563 3.45097 24.5939C3.41683 25.7048 2.70156 26.4837 1.72408 26.4914C0.746596 26.4992 0.0173625 25.7529 0.0173625 24.6063C0.000295279 22.1284 0.00805309 19.649 0.00805309 17.1696Z" fill="#56437A"/>
<path d="M99.9969 17.3078C99.9969 19.7603 99.9969 22.2128 99.9969 24.6653C99.9969 25.7204 99.2878 26.4776 98.3165 26.4869C97.3453 26.4962 96.585 25.7375 96.5835 24.6871C96.5721 19.7293 96.5721 14.7726 96.5835 9.8169C96.5835 8.77115 97.3592 8.01709 98.3321 8.03726C99.3049 8.05743 99.9953 8.80063 99.9969 9.87276C100.001 12.3511 100.001 14.8295 99.9969 17.3078Z" fill="#34C0CC"/>
<path d="M48.0273 9.07227C50.0661 10.4128 52.0909 11.7751 54.1483 13.0846C54.803 13.5004 55.5447 13.7813 56.2444 14.1226L56.3763 14.1381L56.7006 14.0993C56.1606 14.5881 55.8705 15.1435 56.1917 15.8821C56.2246 16.0055 56.2408 16.1329 56.2398 16.2607L52.6882 17.2304V24.9587C51.9699 24.7803 51.3151 24.6593 50.6945 24.4389C50.5161 24.3753 50.3392 24.034 50.3268 23.8183C50.1995 21.4444 50.0552 19.0705 50.0289 16.6935C50.0196 15.8976 49.7511 15.4523 49.0855 15.1265C48.7083 14.9101 48.3455 14.6697 47.9994 14.4065C48.2647 13.5113 47.9994 12.9403 47.3322 12.8813V9.17932L47.4874 9.1545L47.9529 10.0063C47.9855 9.5579 48.0072 9.30965 48.0273 9.07227Z" fill="#5F5FA7"/>
<path d="M73.7693 0.0405273H77.493C77.493 5.27757 77.493 10.5146 77.493 15.7516L73.9384 16.3055C73.8593 15.9035 73.8075 15.4966 73.7833 15.0876C73.7677 10.0719 73.7631 5.05621 73.7693 0.0405273Z" fill="#4C90BF"/>
<path d="M84.3727 0.707657C84.3029 0.991593 84.1725 1.27553 84.1725 1.56102C84.1612 8.14274 84.1612 14.7245 84.1725 21.3062L83.2944 21.3605C83.2323 20.231 83.1485 19.1635 83.1283 18.1022C83.119 17.6569 82.9732 17.4025 82.5713 17.2132C81.9957 16.9416 81.448 16.6143 80.8879 16.3102C80.8956 15.7082 80.9096 15.1062 80.9096 14.5041C80.9117 9.69637 80.9132 4.88705 80.9143 0.0761719L84.3727 0.707657Z" fill="#41A4C4"/>
<path d="M73.7693 0.0405273C73.7693 5.05517 73.7693 10.0719 73.7693 15.0907C73.7935 15.4997 73.8454 15.9066 73.9245 16.3087L71.2527 16.7896C71.1611 18.5646 71.068 20.3582 70.9749 22.1518C70.8694 22.0603 70.6786 21.9734 70.6724 21.8772C70.6429 21.3 70.6724 20.7197 70.6491 20.1426C70.6072 18.8858 70.5064 17.629 70.511 16.3738C70.511 14.7447 70.6367 13.1155 70.646 11.4864C70.6677 7.67266 70.6538 3.85737 70.6538 0.0436305L73.7693 0.0405273Z" fill="#5186BC"/>
<path d="M80.9142 0.0762133C80.9142 4.88295 80.9106 9.68969 80.9034 14.4964C80.9034 15.0984 80.8894 15.7004 80.8816 16.3024C80.3939 15.9626 79.836 15.7367 79.2492 15.6413C78.6624 15.546 78.0617 15.5837 77.4915 15.7516V0.0405273L80.9142 0.0762133Z" fill="#479AC1"/>
<path d="M30.6498 43.6984C29.6723 43.6984 28.819 43.7124 27.9672 43.6984C27.1449 43.6813 26.6763 43.2329 26.6996 42.5549C26.7228 41.9017 27.165 41.5185 27.9734 41.5169C30.4807 41.5097 32.9886 41.5097 35.4969 41.5169C36.313 41.5169 36.8111 41.9467 36.8064 42.603C36.8018 43.2593 36.2944 43.6891 35.4721 43.6891C34.6234 43.7031 33.7654 43.6891 32.8236 43.6891V44.5611C32.8236 48.3614 32.8236 52.1617 32.8236 55.9619C32.8236 56.9084 32.4884 57.349 31.7701 57.3584C31.0222 57.3723 30.6529 56.9053 30.6514 55.9232C30.6514 52.1498 30.6514 48.3743 30.6514 44.5968L30.6498 43.6984Z" fill="#56437A"/>
<path d="M90.5246 23.9813C90.4729 18.1888 90.4212 12.3963 90.3695 6.60379C90.3695 6.20038 90.2717 5.73181 90.8954 5.67285C92.3322 7.88383 93.1561 10.2825 93.1483 12.9435C93.1405 15.9178 93.1824 18.8922 93.1281 21.8649C93.108 22.9712 92.8752 24.0744 92.7387 25.1791L92.4734 25.1667C92.4361 24.7012 92.3989 24.2218 92.3555 23.6679L90.5246 23.9813Z" fill="#34C0CC"/>
<path d="M70.6662 0.0405273C70.6662 3.85427 70.6801 7.66956 70.6584 11.4833C70.6491 13.1124 70.5281 14.7416 70.5234 16.3707C70.5234 17.6259 70.6196 18.8827 70.6615 20.1395C70.6817 20.7166 70.6615 21.2969 70.6848 21.8741C70.6848 21.9703 70.8818 22.0572 70.9873 22.1487C70.976 22.9245 70.9646 23.7003 70.9532 24.4761C70.9361 24.49 70.9005 24.5087 70.9036 24.5164C70.9162 24.5533 70.9317 24.5891 70.9501 24.6235C70.9005 25.8647 70.8487 27.106 70.795 28.3472H70.3667C70.3202 27.8337 70.2488 27.3201 70.2348 26.8065C70.1604 24.3566 70.1107 21.9067 70.0378 19.4583C69.9344 15.8515 69.8201 12.2446 69.6949 8.63773C69.6949 8.5105 69.6654 8.38483 69.6359 8.13813L67.2729 8.81151C67.1888 8.5272 67.1307 8.23587 67.0991 7.94108C67.034 5.33911 66.9874 2.73559 66.9362 0.133621L70.6662 0.0405273Z" fill="#557CB9"/>
<path d="M53.9093 27.5776C53.9093 26.1295 53.9093 24.6814 53.9093 23.2332C54.2957 23.2169 54.6827 23.2231 55.0683 23.2519C56.547 23.438 58.0163 23.6506 59.4965 23.8523H59.6516C59.7556 23.9563 59.858 24.0602 59.9619 24.1626L61.979 25.4039C62.0302 26.7149 62.1341 28.0245 62.1155 29.334C62.104 30.0737 61.9859 30.8079 61.7649 31.5139C61.5057 32.3409 61.0884 33.1167 60.7393 33.9142L59.3211 33.2036C59.453 32.9289 59.5616 32.6404 59.7183 32.3812C60.7501 30.6745 60.3126 28.462 58.6416 27.8134C57.4797 27.3364 56.2041 27.2081 54.9706 27.4442C54.623 27.5218 54.2631 27.5357 53.9093 27.5776Z" fill="#6162AF"/>
<path d="M48.0273 9.07234C48.0072 9.31438 47.9854 9.55797 47.9467 10.0033L47.4781 9.15457L47.3229 9.17939V12.8783C47.9948 12.9373 48.2539 13.5083 47.9901 14.4035L42.8498 11.3004C42.5876 11.1452 42.3254 10.9901 42.074 10.8349C41.486 11.2259 42.3083 12.5121 41.0267 12.3756C40.9755 10.2034 40.9305 8.02038 40.8715 5.84198C40.8545 5.21205 41.0763 4.85519 41.7528 4.89398L48.0273 9.07234Z" fill="#5D5B9F"/>
<path d="M19.7734 34.5253L18.0667 34.3702C17.9991 34.1289 17.9524 33.8824 17.927 33.6332C17.91 32.7022 17.9937 31.7558 17.8929 30.8404C17.8246 30.2011 17.7533 29.4579 16.9945 29.1336C17.0783 26.7908 17.1637 24.4479 17.2521 22.0321C18.3475 21.8041 19.3886 21.5543 20.4437 21.3805C20.9696 21.2951 21.3746 21.441 21.3467 22.1563C21.297 23.2424 21.3358 24.3207 21.3374 25.4037C20.3521 25.5278 20.3335 26.392 20.2761 27.0313C20.0449 29.5246 19.9285 32.0273 19.7734 34.5253Z" fill="#6162AF"/>
<path d="M66.9409 0.141552C66.9921 2.74352 67.0386 5.34704 67.1038 7.94901C67.1353 8.2438 67.1935 8.53513 67.2776 8.81944C65.8672 9.24612 65.0868 10.4734 64.0426 11.3656C63.8269 11.5486 63.6174 11.7379 63.4049 11.9241C63.3428 11.6371 63.2264 11.35 63.2249 11.0614C63.2109 8.30587 63.2249 5.54875 63.2109 2.79317C63.1843 2.46436 63.1324 2.13809 63.0558 1.81724C64.0798 0.630294 65.321 -0.058599 66.9409 0.141552Z" fill="#5B71B5"/>
<path d="M22.9122 49.4393C22.9122 51.6348 22.9122 53.8287 22.9122 56.0241C22.9122 56.9706 22.5585 57.388 21.8106 57.3709C21.1233 57.3554 20.7385 56.9054 20.7369 56.0443C20.7297 51.6555 20.7297 47.2661 20.7369 42.8762C20.7369 42.0027 21.176 41.4953 21.8665 41.5124C22.5569 41.5294 22.9107 41.9779 22.9138 42.8545C22.9169 45.0499 22.9122 47.2439 22.9122 49.4393Z" fill="#56437A"/>
<path d="M63.0604 1.81714C63.1371 2.13799 63.1889 2.46426 63.2156 2.79307C63.2264 5.54864 63.2156 8.30577 63.2295 11.0613C63.2295 11.3499 63.3474 11.637 63.4095 11.924C63.3862 11.9693 63.3581 12.0119 63.3257 12.0512C62.7377 12.6595 61.9526 13.1746 61.619 13.8992C61.2916 14.5958 61.4251 15.5097 61.3568 16.3227C61.2901 16.3413 61.2311 16.3801 61.2016 16.3646C59.7866 15.5174 58.3313 15.6322 56.8573 16.1613C56.6597 16.2135 56.4576 16.2467 56.2537 16.2606C56.2548 16.1328 56.2386 16.0055 56.2056 15.882C55.8844 15.1435 56.1746 14.588 56.7145 14.0993C59.3041 13.955 61.0372 12.6688 61.5616 10.4531C61.6486 9.97253 61.6881 9.48455 61.6795 8.99622C61.7385 7.37794 61.6578 5.73794 61.8859 4.15069C61.9898 3.33301 62.6477 2.59292 63.0604 1.81714Z" fill="#5D67AD"/>
<path d="M27.0487 25.171C27.2038 25.036 27.4319 24.929 27.4971 24.7583C27.5855 24.5333 27.5483 24.2602 27.5653 24.0073C28.8376 24.1625 30.1068 24.3456 31.3806 24.4728C33.2425 24.6543 35.002 25.0732 36.6668 25.9902C38.1873 26.8281 39.7001 27.7668 41.5154 27.8847C41.5061 28.4557 41.4958 29.0246 41.4844 29.5914C41.1799 29.5582 40.8789 29.499 40.5845 29.4145C39.2145 28.9134 37.8677 28.3424 36.4853 27.88C35.1307 27.4055 33.7489 27.0128 32.3473 26.7039C31.1603 26.4619 29.9051 26.5488 28.7244 26.2866C28.1068 26.1516 27.2302 26.0957 27.0487 25.171Z" fill="#437699"/>
<path d="M72.2177 22.7649C72.2177 22.664 72.2177 22.5632 72.2177 22.4623C73.7227 22.394 75.0338 23.0317 76.2952 23.7036C78.1959 24.7152 79.9895 25.9347 81.9181 26.878C82.9235 27.3699 84.1244 27.463 85.2384 27.7361C85.2524 28.3024 85.2648 28.8687 85.2788 29.4428C84.4766 29.2768 83.6326 29.2194 82.88 28.9261C80.8227 28.1271 78.8072 27.2194 76.7669 26.3722C75.2743 25.7516 73.8003 25.0503 72.1215 25.1C72.1526 24.3759 72.1831 23.6518 72.2131 22.9278C72.2162 22.8719 72.2177 22.8192 72.2177 22.7649Z" fill="#437699"/>
<path d="M59.6485 23.8538H59.4934C58.8805 23.078 58.2816 22.3022 57.6486 21.5404C57.0155 20.7786 56.2956 20.054 55.6626 19.2736C55.3274 18.8593 55.0932 18.3613 54.8139 17.902L57.9387 17.1262C57.9651 17.4117 57.9263 17.722 58.0256 17.9796C58.6757 19.6863 59.8704 20.9508 61.3708 21.9454C61.8766 22.2805 62.3653 22.6653 62.9146 22.9073C63.5538 23.1897 64.252 23.3402 64.9238 23.5497C64.6642 24.0669 64.4056 24.5841 64.1481 25.1012L63.8378 25.2564L61.9759 25.4116L59.9589 24.1703C59.8549 24.0617 59.7525 23.9577 59.6485 23.8538Z" fill="#5F5FA7"/>
<path d="M64.9239 23.5454C64.252 23.3359 63.5538 23.1854 62.9146 22.903C62.3653 22.661 61.8766 22.2824 61.3708 21.941C59.8704 20.9465 58.6757 19.6835 58.0256 17.9753C57.9263 17.7177 57.9651 17.4074 57.9387 17.1219C58.9643 16.5757 59.8611 17.0335 60.761 17.4772C60.761 17.8573 60.626 18.2995 60.775 18.6067C61.4328 19.9706 62.5655 20.8053 64.0131 21.2196C65.6063 21.6867 67.2742 21.8447 68.9269 21.685C68.9269 22.0466 68.9346 22.4081 68.9377 22.7711L64.9239 23.5454Z" fill="#5D5B9F"/>
<path d="M62.6989 14.3787C64.5018 12.672 65.8734 10.4222 68.5948 9.61694C68.6476 11.8838 68.6973 13.9877 68.75 16.0932C67.833 15.9132 66.899 15.7984 66.0053 15.5393C64.8897 15.2134 63.8021 14.7697 62.6989 14.3787Z" fill="#58346F"/>
<path d="M85.2105 25.8712L85.2245 26.8022C83.5798 26.6749 82.0717 26.2048 80.725 25.1901C79.0881 23.9488 77.4667 22.6828 75.7227 21.5951C74.6801 20.9419 73.4357 20.6068 72.2829 20.1289C72.3015 19.4695 72.2922 18.807 72.3605 18.1522C72.3899 18.0458 72.4444 17.948 72.5195 17.867C72.5946 17.786 72.6879 17.7242 72.7918 17.6867C73.316 17.5911 73.8447 17.5228 74.376 17.4819C74.5435 17.7317 74.6739 18.0188 74.8849 18.2251C76.8724 20.1801 78.8941 22.104 80.8615 24.0745C82.0779 25.2909 83.4945 25.9116 85.2105 25.8712Z" fill="#564883"/>
<path d="M41.5154 27.8817C39.7001 27.7638 38.1873 26.8251 36.6668 25.9873C35.002 25.0703 33.2394 24.6514 31.3806 24.4698C30.1068 24.3457 28.8376 24.1595 27.5653 24.0044L27.6398 22.594C29.4055 22.9043 31.1774 23.0595 32.9617 22.7631C34.4455 23.037 35.8632 23.5921 37.1385 24.3985C37.7591 24.7864 38.3797 25.1742 39.0112 25.5559C39.8165 25.8833 40.524 26.5257 41.4937 26.3317C41.4937 26.4682 41.5015 26.6032 41.5061 26.7398C41.5077 27.1168 41.5123 27.5 41.5154 27.8817Z" fill="#50598C"/>
<path d="M85.2105 25.8709C83.4945 25.9143 82.081 25.2844 80.8661 24.0664C78.8988 22.0913 76.8771 20.172 74.8895 18.217C74.6785 18.0107 74.5482 17.7236 74.3806 17.4738L77.957 16.8982C78.0904 17.4149 78.1121 18.006 78.3774 18.4358C79.3208 19.9284 80.2967 21.407 81.3642 22.8127C82.2951 24.0431 83.5224 24.8763 85.1795 24.7832C85.1919 25.1463 85.2022 25.5088 85.2105 25.8709Z" fill="#544279"/>
<path d="M37.6226 34.3767C37.3516 34.4553 37.0736 34.5072 36.7925 34.5319C34.2712 34.5319 31.7483 34.5241 29.2271 34.5179L28.2108 34.3146C28.2279 33.0284 28.8221 32.1425 29.9858 31.9392C32.04 31.5901 34.0447 31.9563 36.0089 32.5862C36.4387 32.7138 36.8361 32.9322 37.1742 33.2267C37.5122 33.5211 37.7832 33.8847 37.9686 34.2929L37.953 34.2759L37.6226 34.3767Z" fill="#2ECED4"/>
<path d="M53.9093 27.5777C54.2631 27.5358 54.623 27.5218 54.9706 27.4473C56.2066 27.2097 57.4852 27.338 58.6493 27.8166C60.3204 28.4651 60.7579 30.6808 59.7261 32.3844C59.5709 32.6435 59.4608 32.9321 59.3289 33.2067C58.4321 32.4977 57.4981 31.8305 56.6494 31.0671C55.7959 30.2897 54.9873 29.4645 54.2274 28.5955C54.0117 28.3519 54.0086 27.9283 53.9093 27.5777Z" fill="#6A59B6"/>
<path d="M85.181 24.7831C83.524 24.8762 82.3013 24.043 81.3658 22.8126C80.2983 21.4069 79.3223 19.9282 78.379 18.4356C78.1075 18.0058 78.092 17.4147 77.9585 16.898C79.1237 16.3643 79.9321 17.2502 80.8817 17.6133C81.7242 17.936 82.1027 18.4123 82.0376 19.3805C81.9693 20.3952 82.1384 21.427 82.2052 22.4836H85.181V24.7831Z" fill="#58346F"/>
<path d="M27.0487 25.1714C27.2302 26.1024 28.1068 26.152 28.7244 26.2885C29.9051 26.5492 31.1603 26.4639 32.3473 26.7059C33.7489 27.0148 35.1307 27.4075 36.4853 27.882C37.8677 28.3475 39.2145 28.9153 40.5845 29.4165C40.8789 29.501 41.1799 29.5602 41.4844 29.5934C41.4844 30.1106 41.4818 30.6277 41.4767 31.1449C41.3215 30.9417 41.2082 30.6376 41.0034 30.5538C40.2276 30.2435 39.4224 29.9704 38.6171 29.7206C36.5877 29.1 34.5738 28.3925 32.5102 27.8991C30.6762 27.4615 28.7771 27.3017 26.9246 26.9402C26.2186 26.8021 25.6104 26.7757 25.0627 27.2753H24.2869V25.2645C25.1868 24.9015 26.1162 24.9495 27.0487 25.1714Z" fill="#4286AB"/>
<path d="M72.2891 20.127C73.4419 20.6048 74.6863 20.94 75.7289 21.5932C77.4667 22.6793 79.0943 23.9484 80.7312 25.1881C82.0717 26.2029 83.5798 26.673 85.2307 26.8002L85.2478 27.7312C84.1337 27.4581 82.9328 27.365 81.9274 26.8731C79.9988 25.9298 78.2037 24.7103 76.3046 23.6986C75.0431 23.0268 73.7321 22.3891 72.2271 22.4574C72.2446 21.6816 72.2653 20.9048 72.2891 20.127Z" fill="#50598C"/>
<path d="M37.9686 34.299C37.7832 33.8908 37.5123 33.5272 37.1742 33.2327C36.8361 32.9383 36.4387 32.7199 36.0089 32.5923C34.0447 31.9623 32.04 31.5962 29.9858 31.9453C28.8221 32.1439 28.2279 33.0314 28.2108 34.3207L29.2271 34.524H27.8307L26.6266 34.3161C26.8004 32.9616 27.1945 31.7746 28.3753 31.0081C29.6568 30.1796 31.0812 30.5039 32.4372 30.6187C33.6537 30.7211 34.8623 31.0221 36.0462 31.3433C37.5046 31.7374 38.7769 32.4697 39.6349 33.7792L37.9686 34.299Z" fill="#34C0CC"/>
<path d="M69.0619 25.7205L69.1038 27.8926C68.6507 28.0602 68.1728 28.1719 67.7523 28.4062C66.3652 29.182 65.6236 30.5443 64.9099 31.8677C64.4708 32.6839 64.2893 33.6381 63.9929 34.5302L62.4413 34.3906C63.0697 32.6218 63.5802 30.8018 64.3544 29.1013C65.2481 27.1339 66.7842 25.8554 69.0619 25.7205Z" fill="#4286AB"/>
<path d="M25.0518 27.269C25.6057 26.7694 26.2139 26.7957 26.9137 26.9338C28.7756 27.2953 30.67 27.4552 32.4993 27.8927C34.5629 28.3861 36.5768 29.0874 38.6063 29.7142C39.4115 29.964 40.2137 30.2293 40.9926 30.5474C41.1974 30.6312 41.3106 30.9353 41.4658 31.1386C41.4658 31.4489 41.4658 31.7592 41.458 32.0695C41.3339 31.9143 41.2393 31.6956 41.081 31.6335C37.8087 30.3705 34.6125 28.8407 31.0517 28.5459C29.6274 28.4311 28.172 28.414 26.8997 29.2844H26.5894C26.3179 28.3628 26.2186 28.3225 25.3249 28.7305C25.1815 28.7776 25.0331 28.8078 24.8827 28.8205L25.0518 27.269Z" fill="#3D98B0"/>
<path d="M33.4101 16.2155L34.3581 15.9548C34.6684 16.7616 34.8654 17.6274 35.289 18.3629C35.8802 19.3791 36.7521 20.0494 38.0586 19.9889C39.2812 19.9315 40.5085 19.978 41.7342 19.9796C41.7156 20.443 41.6975 20.9059 41.6799 21.3682L37.4581 21.9889C36.2355 21.9268 35.4069 21.1184 34.5101 20.4373C34.4544 20.1666 34.3707 19.9025 34.2603 19.6491C33.6532 18.6099 33.358 17.4179 33.4101 16.2155Z" fill="#5A5090"/>
<path d="M71.4994 29.8774L71.8873 29.8961C73.099 30.0512 74.317 30.1722 75.5195 30.3817C77.5163 30.7292 79.5116 31.142 81.1827 32.3879C81.8126 32.8533 82.5791 33.3095 82.4767 34.3087C81.9957 34.3863 81.5163 34.529 81.0368 34.5306C77.1703 34.5445 73.3038 34.5306 69.4389 34.5306L70.0595 34.4111H80.9003C80.6629 33.6353 79.7413 32.6206 78.9531 32.4065C77.4015 31.9829 75.8313 31.5438 74.2394 31.3421C72.7577 31.1544 71.2279 31.5919 69.7399 31.1528C69.7399 31.1016 69.7399 31.0489 69.7399 30.9977L71.4994 29.8774Z" fill="#34C0CC"/>
<path d="M27.795 19.8136C27.8648 18.1426 27.93 16.4731 28.0091 14.8036C28.0308 14.3382 29.1076 13.6043 29.6165 13.7175C30.0649 13.8199 30.5009 13.9735 30.9431 14.1039C30.8438 14.7772 30.6654 15.4491 30.6592 16.1209C30.6483 17.3001 30.7414 18.4793 30.791 19.6585L27.795 19.8136Z" fill="#58346F"/>
<path d="M54.8139 17.9021C55.0931 18.3676 55.3274 18.8594 55.6626 19.2737C56.2956 20.0495 57.0016 20.7725 57.6486 21.5405C58.2956 22.3085 58.8805 23.0828 59.4934 23.8539C58.0178 23.6522 56.5454 23.4396 55.0652 23.2534C54.6796 23.2247 54.2926 23.2185 53.9062 23.2348C53.8876 21.6833 53.8814 20.1317 53.8441 18.5879C53.8255 17.8431 54.398 17.9983 54.8139 17.9021Z" fill="#5D67AD"/>
<path d="M39.6318 33.7745C38.7738 32.465 37.5015 31.7327 36.0431 31.3386C34.8592 31.0174 33.6506 30.7179 32.4341 30.614C31.0781 30.4992 29.6537 30.1749 28.3721 31.0034C27.1914 31.7699 26.7973 32.9569 26.6235 34.3114L27.8275 34.5193H25.6724C25.7004 34.2648 25.7267 34.0119 25.7547 33.759C25.8912 32.5178 26.3939 31.4068 27.0657 30.3673C28.8361 29.4488 30.7088 29.4286 32.6126 29.7467C34.957 30.1439 37.2129 30.8235 39.2843 32.0042C39.8149 32.3067 40.2478 32.78 40.7257 33.1756L39.6318 33.7745Z" fill="#37B6CA"/>
<path d="M16.9868 29.1306C17.7455 29.4533 17.8169 30.1965 17.8851 30.8373C17.986 31.7605 17.9022 32.6992 17.9193 33.6301C17.9446 33.8794 17.9913 34.1259 18.0589 34.3671C16.7851 33.9994 15.5066 33.6441 14.2421 33.2454C14.0978 33.1988 13.9426 32.9025 13.9442 32.7225C13.9442 31.9265 14.0155 31.1321 14.0636 30.2602C14.768 30.0352 15.4988 29.8195 16.2141 29.5635C16.4842 29.4428 16.7428 29.2979 16.9868 29.1306V29.1306Z" fill="#6A59B6"/>
<path d="M33.4101 16.2157C33.3583 17.4194 33.6546 18.6126 34.2634 19.6524C34.3738 19.9057 34.4575 20.1699 34.5133 20.4406C33.6956 21.0162 33.3123 21.8789 32.9617 22.7679C31.1774 23.0611 29.4055 22.9122 27.6398 22.5988C27.6585 22.2885 27.6755 21.989 27.6941 21.6834C28.0962 21.7442 28.5012 21.7835 28.9075 21.8013C29.8756 21.8013 30.8578 21.8401 31.8073 21.6958C32.5909 21.5779 32.7305 21.162 32.5117 20.408C32.4279 20.1178 32.3969 19.8106 32.3411 19.5112C32.3845 17.8526 32.0711 16.1831 32.4962 14.5369L33.407 14.7106L33.4101 16.2157Z" fill="#564883"/>
<path d="M42.9351 18.5479V12.6892C43.472 13.0119 43.7931 13.1997 44.1097 13.3936C45.1244 14.0142 46.1406 14.6349 47.1492 15.2741C47.3498 15.421 47.5386 15.5834 47.7139 15.7597C46.6278 17.1019 45.1756 17.8544 43.5247 18.2702C43.3194 18.3429 43.1219 18.436 42.9351 18.5479V18.5479Z" fill="#24D0A4"/>
<path d="M40.7272 33.1849C40.2494 32.7893 39.8165 32.3161 39.2858 32.0135C37.213 30.8328 34.957 30.1516 32.6141 29.756C30.7104 29.4317 28.8376 29.4457 27.0673 30.3766C27.0166 30.0146 26.9649 29.6525 26.9121 29.2905C28.1844 28.4201 29.6398 28.4372 31.0641 28.552C34.6327 28.8406 37.8212 30.3766 41.0934 31.6396C41.2486 31.7016 41.3463 31.9266 41.4704 32.0756C41.6256 32.7117 41.247 32.9956 40.7272 33.1849Z" fill="#3CADC7"/>
<path d="M83.074 46.8125C83.0647 46.375 83.0492 45.9374 83.0476 45.4999C83.0476 43.3386 84.1198 42.0461 86.2687 41.7017C86.9483 41.593 87.648 41.6194 88.34 41.5837C88.3741 42.3937 88.326 43.1725 87.5642 43.6892L87.1841 43.728C85.6325 43.894 85.2229 44.3393 85.2012 45.8909C85.2012 46.046 85.1795 46.2012 85.1686 46.3563L83.074 46.8125Z" fill="#24D0A4"/>
<path d="M19.7734 34.5256C19.9286 32.0276 20.0449 29.5249 20.2684 27.0331C20.3258 26.3939 20.3444 25.5296 21.3296 25.4055C21.3544 25.7158 21.4274 25.9346 21.8292 25.7888C22.0665 25.7238 22.3089 25.6797 22.5538 25.6569C22.5057 26.0106 22.5212 26.3877 22.3986 26.715C21.4879 29.2425 21.3482 31.8864 21.1652 34.5256H19.7734Z" fill="#5B71B5"/>
<path d="M68.9269 21.6817C67.2742 21.8414 65.6063 21.6834 64.0131 21.2162C62.5655 20.802 61.4328 19.975 60.775 18.6034C60.6198 18.2931 60.7579 17.854 60.761 17.4739L62.4196 17.9114C62.5748 18.1317 62.702 18.3908 62.9006 18.5631C64.629 20.0588 66.7516 20.2093 68.8927 20.2822C68.9036 20.7508 68.916 21.2162 68.9269 21.6817Z" fill="#565693"/>
<path d="M69.729 30.9943C69.729 31.0455 69.729 31.0983 69.729 31.1495C69.6127 31.5684 69.3505 32.0106 69.4187 32.4016C69.5273 33.0874 69.833 33.7406 70.0564 34.4078L69.4358 34.5272H66.0006L64.8633 34.2899C65.3924 33.0843 65.6981 31.8229 66.9471 31.1526C67.304 31.1309 67.6639 31.1293 68.0177 31.0797C68.4381 31.0223 68.8509 30.9245 69.2682 30.8423L69.729 30.9943Z" fill="#24D0A4"/>
<path d="M62.6989 14.3789C63.8021 14.7699 64.8897 15.2136 66.0099 15.5395C66.9036 15.7986 67.8377 15.9134 68.7547 16.0934L68.8012 18.4207C68.5499 18.3711 68.3001 18.3013 68.0471 18.2749C66.3622 18.0918 64.7703 17.6543 63.3304 16.714C63.1147 16.5744 62.7889 16.6038 62.5127 16.5589L62.6989 14.3789Z" fill="#56437A"/>
<path d="M41.7373 19.9798C40.5116 19.9798 39.2843 19.9317 38.0616 19.9891C36.7552 20.0496 35.8895 19.3793 35.2921 18.363C34.8654 17.6276 34.6622 16.7618 34.3612 15.955L35.7576 15.4802C35.8708 17.1404 36.5892 18.0527 38.1687 18.2606C39.3557 18.4158 40.5674 18.3785 41.7668 18.4266C41.7544 18.9449 41.7466 19.4631 41.7373 19.9798Z" fill="#5D5B9F"/>
<path d="M72.1246 25.0921C73.8034 25.0424 75.2774 25.7437 76.77 26.3644C78.8103 27.2131 80.8258 28.1192 82.8832 28.9182C83.6357 29.2115 84.4797 29.2689 85.2819 29.4349C85.3036 29.7452 85.3238 30.0555 85.3439 30.3659C83.5689 29.7949 81.7753 29.2798 80.0252 28.639C77.4263 27.6754 74.8895 26.5319 72.1029 26.1797L72.1246 25.0921Z" fill="#4286AB"/>
<path d="M62.5127 16.5566C62.7889 16.6063 63.1147 16.5768 63.3304 16.7118C64.7702 17.6427 66.3621 18.0896 68.0471 18.2727C68.3 18.299 68.5498 18.3689 68.8012 18.4185C68.8322 19.0391 68.8627 19.6598 68.8927 20.2804C66.7516 20.2075 64.629 20.057 62.9006 18.5613C62.702 18.389 62.5779 18.1299 62.4196 17.9096L62.5127 16.5566Z" fill="#584D8A"/>
<path d="M72.1029 26.1829C74.8957 26.5351 77.4263 27.6786 80.0252 28.6421C81.7723 29.2891 83.569 29.798 85.344 30.369L85.3626 31.4551C85.0817 31.4349 84.7761 31.4814 84.5247 31.3837C82.0624 30.4357 79.6218 29.4349 77.1533 28.5071C75.521 27.8865 73.8531 27.3714 72.0703 27.421L72.1029 26.1829Z" fill="#3D98B0"/>
<path d="M21.1698 34.5254C21.3529 31.8878 21.4925 29.2424 22.4033 26.7149C22.5212 26.3875 22.5057 26.0105 22.5584 25.6567L24.2776 25.2642V27.2703C23.449 28.5612 22.7012 29.8956 22.5072 31.4456C22.38 32.4665 22.3397 33.4983 22.259 34.5254H21.1698Z" fill="#557CB9"/>
<path d="M92.1134 49.3105L92.8892 50.6852C92.5463 50.7085 92.2034 50.7271 91.8605 50.7566C91.3392 50.8 90.8194 50.8481 90.2981 50.8946C89.1142 50.4292 87.8916 50.5021 86.6659 50.6231C86.6054 50.1825 86.5464 49.7418 86.4859 49.2996C86.7466 48.9971 87.0057 48.693 87.2617 48.3889L90.3431 48.001C90.5401 48.9707 91.2895 49.5262 92.1134 49.3105Z" fill="#544279"/>
<path d="M82.4767 34.3082C82.5822 33.309 81.8126 32.8591 81.1827 32.3874C79.5116 31.1461 77.5163 30.7288 75.5195 30.3812C74.317 30.1718 73.099 30.0538 71.8873 29.8956C71.9214 29.5372 71.9571 29.1788 71.9912 28.8219L72.0626 28.811C73.189 29.022 74.3232 29.1958 75.4388 29.4503C78.1323 30.06 80.7141 30.9522 82.953 32.6325C83.4402 32.9971 83.8839 33.4269 84.337 33.8257L82.4767 34.3082Z" fill="#37B6CA"/>
<path d="M48.9071 18.4297C48.9195 18.8952 48.9303 19.3606 48.9428 19.8261C47.7574 20.1783 46.9878 21.0379 46.3051 21.9983L42.8917 23.3947C42.8989 22.6706 42.9056 21.9466 42.9118 21.2225C44.0662 21.2349 44.9289 20.5522 45.8722 20.0247C46.8668 19.4661 47.8939 18.9588 48.9071 18.4297Z" fill="#50598C"/>
<path d="M37.1493 15.0069L41.9592 13.2893C41.8971 14.5306 41.8428 15.6166 41.7885 16.7183C40.7784 16.6981 39.742 16.8082 38.7661 16.6143C37.9918 16.4623 37.1819 16.0449 37.1493 15.0069Z" fill="#5B71B5"/>
<path d="M48.9071 18.4295C47.8939 18.9586 46.8668 19.466 45.8707 20.0245C44.9304 20.5521 44.0646 21.2347 42.9103 21.2223L42.9336 19.0501C43.4347 18.9726 43.9917 19.0098 44.4277 18.7972C45.624 18.2108 46.7768 17.5327 47.9311 16.864C48.1996 16.7088 48.4075 16.4451 48.6433 16.231C48.7323 16.9643 48.8202 17.6972 48.9071 18.4295Z" fill="#437699"/>
<path d="M72.0626 28.811L71.9912 28.8219L72.0703 27.4254C73.8531 27.3773 75.521 27.8987 77.1533 28.5115C79.6218 29.4425 82.0624 30.4401 84.5247 31.3881C84.7761 31.4859 85.0817 31.4393 85.3626 31.4595C85.3626 31.7698 85.3719 32.0801 85.3781 32.3904C84.7388 32.2167 84.0313 32.1639 83.4728 31.8474C80.455 30.1484 77.206 29.1601 73.8221 28.5767C73.2557 28.4759 72.5746 28.2105 72.0626 28.811Z" fill="#41A4C4"/>
<path d="M37.1493 15.0071C37.1819 16.0451 37.9918 16.4624 38.7614 16.6145C39.7373 16.8084 40.7784 16.6983 41.7839 16.7185C41.7766 17.2874 41.7699 17.8563 41.7637 18.4252C40.5643 18.3771 39.3526 18.4159 38.1656 18.2592C36.5861 18.0512 35.8678 17.1389 35.7545 15.4788L37.1493 15.0071Z" fill="#6162AF"/>
<path d="M69.0619 25.7202C66.7842 25.8552 65.2481 27.1337 64.356 29.0964C63.5802 30.8031 63.0713 32.6169 62.4429 34.3857L61.8036 34.3019C61.8843 33.9792 61.9417 33.6502 62.0504 33.3384C62.4972 32.063 62.9689 30.7969 63.4142 29.5215C63.9138 28.0941 64.418 26.6744 65.5631 25.6007C65.6453 25.5247 65.6562 25.3711 65.6996 25.2547L69.0013 24.6155L69.0619 25.7202Z" fill="#557CB9"/>
<path d="M72.0626 28.8111C72.5746 28.2107 73.2557 28.476 73.8221 28.5753C77.206 29.1587 80.455 30.147 83.4728 31.846C84.0313 32.1563 84.7389 32.2152 85.3781 32.389C85.451 33.5403 85.451 33.5403 84.337 33.8258C83.8715 33.427 83.4402 32.9972 82.953 32.6326C80.7141 30.9523 78.1323 30.0601 75.4388 29.4503C74.3201 29.1959 73.189 29.0221 72.0626 28.8111Z" fill="#3CADC7"/>
<path d="M32.341 19.5098C32.3969 19.8092 32.4279 20.1164 32.5117 20.4066C32.7305 21.1606 32.5909 21.5764 31.8073 21.6944C30.8578 21.8387 29.8756 21.7937 28.9074 21.7999C28.5012 21.7821 28.0962 21.7427 27.6941 21.682C27.7283 21.0613 27.7619 20.4407 27.795 19.8201L30.791 19.6649L32.341 19.5098Z" fill="#544279"/>
<path d="M49.2546 26.4962L48.3237 26.777C48.0847 26.2153 47.8861 25.6304 47.5975 25.0967C47.0979 24.1657 47.0312 23.2053 47.4998 22.3038C47.8799 21.5731 48.4649 20.9493 48.9598 20.2791C49.0436 21.7561 49.115 23.2348 49.2267 24.7088C49.2453 24.9477 49.4485 25.1742 49.5665 25.4039C49.6171 25.7607 49.6689 26.1176 49.7216 26.4744L49.4113 26.4869L49.2546 26.4962Z" fill="#544279"/>
<path d="M66.9471 31.1464C65.6981 31.8167 65.3955 33.0781 64.8633 34.2836L66.0006 34.5272H63.9929C64.2892 33.6351 64.4708 32.6809 64.9099 31.8647C65.6236 30.5413 66.3652 29.1821 67.7523 28.4032C68.1681 28.1689 68.6507 28.0572 69.1037 27.8896C69.1037 28.3039 69.1146 28.7166 69.1193 29.1309C68.193 29.5855 67.1177 29.8788 66.9471 31.1464Z" fill="#3D98B0"/>
<path d="M37.4612 21.9934L41.683 21.3728L41.6644 22.1486C41.3386 22.2013 40.9398 22.1486 40.6993 22.327C40.1594 22.7134 39.4581 23.1338 39.2828 23.6846C39.1462 24.1253 39.6303 24.8343 39.9825 25.3184C40.1935 25.6086 40.6947 25.6737 41.0422 25.8785C41.2106 26.0089 41.3618 26.1601 41.4922 26.3285C40.524 26.5302 39.8165 25.8878 39.0097 25.5527C38.875 25.3177 38.7192 25.0954 38.5442 24.8886C37.7545 24.0865 37.2812 23.1649 37.4612 21.9934Z" fill="#564883"/>
<path d="M48.9583 20.279C48.4633 20.9493 47.8722 21.573 47.4983 22.3038C47.0328 23.2052 47.0964 24.1657 47.596 25.0966C47.8846 25.6303 48.0832 26.2153 48.3221 26.7769L47.565 27.1648C47.4781 27.0392 47.3788 26.9197 47.3028 26.7878C46.4432 25.2999 45.1864 23.8941 46.3036 21.9935C46.9878 21.0331 47.7574 20.1735 48.9412 19.8213C48.9474 19.9733 48.9521 20.1254 48.9583 20.279Z" fill="#55457D"/>
<path d="M22.2543 34.5256C22.335 33.4985 22.3754 32.4667 22.5026 31.4458C22.6965 29.8942 23.4444 28.5614 24.2729 27.2705H25.0487L24.8935 28.8221C23.782 30.5173 23.1888 32.5 23.1868 34.5272L22.2543 34.5256Z" fill="#5186BC"/>
<path d="M23.1884 34.5255C23.1904 32.4983 23.7835 30.5156 24.8951 28.8204C25.0455 28.8076 25.1939 28.7774 25.3373 28.7304C26.231 28.3223 26.3303 28.3627 26.6018 29.2843C24.9727 30.6559 24.4684 32.4945 24.4296 34.5255H23.1884Z" fill="#479AC1"/>
<path d="M65.6996 25.255C65.6562 25.3714 65.6453 25.525 65.5631 25.601C64.418 26.6747 63.9138 28.0944 63.4142 29.5218C62.9689 30.7972 62.4972 32.0633 62.0504 33.3387C61.9417 33.649 61.8843 33.9795 61.8037 34.3022L61.3459 34.1206C61.5554 33.3883 61.7602 32.656 61.9774 31.9267C62.1217 31.4396 62.3064 30.9648 62.4429 30.4745C62.8386 29.002 63.2187 27.5265 63.6019 26.0494C63.6717 25.781 63.7571 25.5172 63.844 25.2504L64.1543 25.0952L65.6996 25.255Z" fill="#5B71B5"/>
<path d="M32.3411 19.5098L30.7895 19.6649C30.7398 18.4858 30.6468 17.3066 30.6576 16.1274C30.6576 15.454 30.8422 14.7822 30.9415 14.1104L32.4931 14.537C32.0711 16.1817 32.3845 17.8512 32.3411 19.5098Z" fill="#56437A"/>
<path d="M65.6996 25.255L64.1481 25.0998C64.4077 24.5826 64.6663 24.0654 64.9239 23.5482L68.9377 22.7725C68.9595 23.3931 68.9807 24.0096 69.0014 24.6219L65.6996 25.255Z" fill="#5D67AD"/>
<path d="M46.3035 21.9939C45.1864 23.8946 46.4432 25.3003 47.3027 26.7882C47.3788 26.9201 47.4781 27.0396 47.5649 27.1653L46.8171 27.6881C46.603 27.3778 46.409 27.0442 46.1685 26.7572C45.5045 25.9473 44.7846 25.1824 44.1624 24.3445C43.8179 23.879 43.4595 23.6246 42.8854 23.7053V23.395L46.3035 21.9939Z" fill="#584D8A"/>
<path d="M42.8855 23.6988C43.4595 23.6181 43.8164 23.8741 44.1624 24.3381C44.783 25.1759 45.5045 25.9408 46.1686 26.7507C46.4091 27.044 46.603 27.3714 46.8171 27.6817C46.5606 27.8989 46.302 28.1151 46.0413 28.3302C45.2128 27.1929 44.2182 26.2884 42.7831 26.0184C42.8099 25.2468 42.8441 24.4736 42.8855 23.6988Z" fill="#565693"/>
<path d="M75.0152 43.6891C74.3729 43.6891 73.729 43.7309 73.0882 43.6891C72.4474 43.6472 72.0936 43.3012 72.0719 42.6557C72.0502 42.0475 72.3822 41.6038 72.9532 41.5882C73.9462 41.5588 74.9438 41.6674 75.9399 41.7186C75.9374 42.0943 75.8535 42.4651 75.6938 42.8053C75.5342 43.1455 75.3026 43.447 75.0152 43.6891Z" fill="#5186BC"/>
<path d="M41.4922 26.3271C41.3618 26.1587 41.2106 26.0075 41.0422 25.8772C40.6947 25.6724 40.1935 25.6072 39.9825 25.3171C39.6303 24.833 39.1462 24.1239 39.2827 23.6833C39.4519 23.1325 40.1594 22.712 40.6993 22.3256C40.9398 22.1534 41.3386 22.2 41.6644 22.1472C41.6116 23.675 41.5599 25.2043 41.5092 26.7352C41.4999 26.5986 41.4968 26.4637 41.4922 26.3271Z" fill="#544279"/>
<path d="M77.1331 50.3811C77.1331 49.3467 77.1331 48.317 77.1331 47.2919L79.192 47.1274C79.192 48.2653 79.192 49.4031 79.192 50.5409L77.1331 50.3811Z" fill="#56437A"/>
<path d="M24.4296 34.5256C24.4669 32.4946 24.9711 30.656 26.6018 29.2844H26.9121C26.9649 29.6465 27.0166 30.0085 27.0673 30.3705C26.3955 31.4101 25.8927 32.5163 25.7562 33.7622C25.7283 34.0151 25.7019 34.268 25.674 34.5225L24.4296 34.5256Z" fill="#41A4C4"/>
<path d="M63.8378 25.2502C63.7571 25.5171 63.6655 25.7809 63.5957 26.0493C63.2078 27.5233 62.8323 28.9973 62.4367 30.4744C62.3064 30.9646 62.1264 31.4394 61.9712 31.9266C61.754 32.6558 61.5492 33.3882 61.3397 34.1205L60.73 33.9157C61.0791 33.1182 61.4964 32.3424 61.7556 31.5154C61.9766 30.8094 62.0947 30.0752 62.1062 29.3355C62.1217 28.026 62.0209 26.7165 61.9697 25.4054L63.8378 25.2502Z" fill="#5D67AD"/>
<path d="M91.7612 56.4305C90.5618 57.3723 89.1654 57.4375 87.7271 57.3413C87.8833 56.6441 88.0385 55.947 88.1926 55.2498H88.5138L89.1111 55.2312L89.527 55.1707L91.7612 56.4305Z" fill="#2ECED4"/>
<path d="M87.9956 29.7422C88.0163 28.5537 88.0369 27.3641 88.0576 26.1736C88.2423 26.2806 88.4859 26.3443 88.6022 26.5025C89.2772 27.4195 89.9226 28.3644 90.5774 29.2953L89.7892 30.2371L87.9956 29.7422Z" fill="#544279"/>
<path d="M10.1801 30.2074C9.56878 29.7001 10.0436 29.0779 10.0017 28.51L11.7084 27.5791L12.9233 27.8894L12.8767 29.9064L10.1801 30.2074Z" fill="#55457D"/>
<path d="M45.1089 29.2349L42.7474 31.7174V27.8882C43.714 28.0232 44.5612 28.3645 45.1089 29.2349Z" fill="#6162AF"/>
<path d="M45.1089 29.2348C44.5612 28.3643 43.7124 28.023 42.7474 27.888L42.78 26.0261C44.2229 26.2961 45.2175 27.2007 46.0382 28.3379L45.1089 29.2348Z" fill="#5F5FA7"/>
<path d="M92.1134 49.3104C91.2895 49.5261 90.5401 48.9706 90.3493 48.0009L91.0103 46.8186L93.1188 46.9738C93.1933 47.9295 92.8861 48.7193 92.1134 49.3104Z" fill="#56437A"/>
<path d="M48.6433 16.2327C48.4075 16.4469 48.1996 16.7091 47.9311 16.8658C46.7768 17.5345 45.624 18.2125 44.4277 18.799C43.9917 19.0116 43.4347 18.9744 42.9336 19.0519V18.5477C43.1204 18.4358 43.3179 18.3427 43.5232 18.2699C45.174 17.8541 46.6263 17.1016 47.7124 15.7595L48.6433 16.2327Z" fill="#3D98B0"/>
<path d="M86.4874 49.2996C86.548 49.7418 86.6069 50.1824 86.6674 50.623L85.181 51.6254L83.1066 51.315L83.825 49.8535C84.0499 49.9 84.2904 50.0303 84.4937 49.976C85.1624 49.7868 85.8218 49.5307 86.4874 49.2996Z" fill="#564883"/>
<path d="M75.0152 43.6889C75.303 43.4481 75.5352 43.1478 75.6959 42.8088C75.8566 42.4697 75.942 42.0998 75.9461 41.7246L78.1183 42.6866L76.6598 44.1993L75.0152 43.6889Z" fill="#557CB9"/>
<path d="M83.856 55.9651C83.0663 55.3056 82.9763 54.429 83.0802 53.4826L85.1624 53.0171C85.1733 53.4314 85.1857 53.8456 85.1965 54.2583C84.7528 54.8303 84.306 55.3993 83.856 55.9651Z" fill="#5D5B9F"/>
<path d="M79.2013 55.5044C79.3177 56.1561 79.3859 56.8077 78.7265 57.2329C78.0392 57.6782 77.192 57.2235 77.0896 56.35C77.0766 56.018 77.089 55.6855 77.1269 55.3555L79.2013 55.5044Z" fill="#34C0CC"/>
<path d="M85.1686 53.0219L83.0864 53.4874C83.0864 52.7633 83.0906 52.0392 83.0988 51.3152L85.1733 51.6255L85.1686 53.0219Z" fill="#5A5090"/>
<path d="M86.4874 49.2995C85.8218 49.5307 85.1624 49.7867 84.4859 49.9776C84.2904 50.0319 84.0422 49.9016 83.8172 49.855L84.0034 49.2964C84.1213 49.1413 84.2051 48.9318 84.3602 48.8418C84.8552 48.5548 85.3765 48.3112 85.887 48.0505L87.2679 48.3888C87.0072 48.6929 86.7481 48.997 86.4874 49.2995Z" fill="#50598C"/>
<path d="M66.9471 31.1462C67.1178 29.8786 68.1883 29.5853 69.1193 29.1292L69.7399 29.5729L69.2651 30.8359C68.8477 30.9165 68.435 31.0158 68.0146 31.0733C67.6639 31.1229 67.3039 31.1245 66.9471 31.1462Z" fill="#3CADC7"/>
<path d="M93.1188 46.975L91.0103 46.8199V45.4235L93.1204 45.2683L93.1188 46.975Z" fill="#5B5597"/>
<path d="M87.5658 43.6892C88.326 43.1725 88.3741 42.3937 88.3415 41.5837L89.9055 41.7265C89.7473 42.3978 89.5895 43.0701 89.4323 43.7435L87.5658 43.6892Z" fill="#3D98B0"/>
<path d="M90.5774 29.2936C89.9226 28.3627 89.2771 27.4225 88.6022 26.5008C88.4858 26.3457 88.2423 26.279 88.0576 26.1719V25.8616L88.1864 25.6707L89.1173 25.4551C89.333 26.7693 90.2174 27.6009 91.2011 28.3627L90.5774 29.2936Z" fill="#437699"/>
<path d="M93.1188 45.2671L91.0087 45.4222C90.9947 45.1771 90.9823 44.9304 90.9699 44.6852L92.6503 43.4067C92.8075 44.0274 92.9637 44.6475 93.1188 45.2671Z" fill="#6162AF"/>
<path d="M79.1951 47.1272L77.1362 47.2917C77.1362 46.8262 77.1362 46.3607 77.1362 45.8953L79.1982 45.7292C79.1972 46.1958 79.1961 46.6617 79.1951 47.1272Z" fill="#5A5090"/>
<path d="M49.7201 26.4744C49.6673 26.1175 49.6156 25.7607 49.5649 25.4038L52.6681 26.1237V27.0888L49.7201 26.4744Z" fill="#58346F"/>
<path d="M90.3012 50.8916C90.8225 50.845 91.3423 50.7969 91.8636 50.7535C92.2065 50.724 92.5494 50.7054 92.8923 50.6821L93.1204 52.0894L91.0087 51.9342L90.3012 50.8916Z" fill="#50598C"/>
<path d="M76.6475 44.1995L78.1059 42.6868L79.1765 44.3376L77.099 44.8031L76.6475 44.1995Z" fill="#5B71B5"/>
<path d="M85.887 48.0508C85.3765 48.3114 84.8552 48.555 84.3603 48.8421C84.2051 48.9321 84.1213 49.1415 84.0034 49.2967C83.7024 48.7795 83.4009 48.2623 83.0988 47.7451L85.2198 47.4348L85.887 48.0508Z" fill="#437699"/>
<path d="M89.4308 43.7416C89.589 43.0693 89.7468 42.397 89.904 41.7246L91.4742 42.4631C91.107 43.0196 90.7382 43.5761 90.3679 44.1326L89.4308 43.7416Z" fill="#5186BC"/>
<path d="M90.3679 44.1343C90.7372 43.5789 91.1059 43.0224 91.4742 42.4648L92.6502 43.4066L90.9699 44.6851L90.3679 44.1343Z" fill="#5B71B5"/>
<path d="M77.1036 44.7999L79.1811 44.3345C79.1811 44.7999 79.192 45.2654 79.1967 45.7309L77.1346 45.8969C77.1253 45.5307 77.1129 45.1661 77.1036 44.7999Z" fill="#5F5FA7"/>
<path d="M91.0071 51.9355L93.1188 52.0907V53.1908C92.8836 53.236 92.6446 53.2578 92.4051 53.2559C91.9396 53.2047 91.4742 53.1008 91.0087 53.0232C91.0087 52.6617 91.0071 52.2986 91.0071 51.9355Z" fill="#437699"/>
<path d="M88.2004 55.2497C88.0452 55.9469 87.8901 56.6441 87.7349 57.3412L86.6488 57.3024L87.2694 55.2373L88.2004 55.2497Z" fill="#37B6CA"/>
<path d="M79.2013 55.5042L77.1269 55.349V54.2629H79.2013V55.5042Z" fill="#3CADC7"/>
<path d="M79.1951 52.3995V53.4856L77.1362 53.4763C77.1362 53.1179 77.1362 52.7579 77.1362 52.3979L79.1951 52.3995Z" fill="#437699"/>
<path d="M91.2011 28.372C90.2174 27.6102 89.3392 26.7786 89.1173 25.4644L89.738 25.3853C89.9785 26.3395 90.402 27.1401 91.4447 27.4302L91.2011 28.372Z" fill="#4286AB"/>
<path d="M85.2198 47.433L83.0988 47.7433C83.0911 47.433 83.0833 47.1227 83.074 46.8124L85.1702 46.3469C85.181 46.71 85.2028 47.0715 85.2198 47.433Z" fill="#3D98B0"/>
<path d="M77.1331 50.3809L79.1982 50.536V51.467H77.1362C77.1346 51.1023 77.1331 50.7362 77.1331 50.3809Z" fill="#564883"/>
<path d="M91.7612 56.4306L89.5347 55.1692L90.5944 54.6882L92.5479 55.6766L91.7612 56.4306Z" fill="#34C0CC"/>
<path d="M87.2679 55.2359L86.6473 57.301L85.5612 57.0326L86.0592 54.9644L87.2679 55.2359Z" fill="#4C90BF"/>
<path d="M91.0087 53.0249C91.4742 53.104 91.9396 53.2064 92.4051 53.2576C92.6446 53.2595 92.8837 53.2377 93.1188 53.1925C93.1188 53.5504 93.1188 53.9098 93.1188 54.2708L91.0041 54.1156C91.0041 53.7495 91.0056 53.3859 91.0087 53.0249Z" fill="#3D98B0"/>
<path d="M91.0009 54.1111L93.1157 54.2662L92.5478 55.672L90.5944 54.6836L91.0009 54.1111Z" fill="#3CADC7"/>
<path d="M10.1801 30.2076L12.8783 29.905L12.827 30.6948L10.7867 30.8344L10.1801 30.2076Z" fill="#437699"/>
<path d="M83.856 55.965C84.3049 55.3992 84.7539 54.8303 85.2028 54.2583L85.5736 54.6927L84.7838 56.6896L83.856 55.965Z" fill="#6162AF"/>
<path d="M77.1346 51.4641H79.1967C79.1967 51.7744 79.1967 52.0847 79.1967 52.395H77.1377C77.1362 52.0878 77.1362 51.776 77.1346 51.4641Z" fill="#50598C"/>
<path d="M69.2682 30.836L69.743 29.573L70.0533 29.6071L70.4536 29.7266L71.5056 29.8818L69.7352 30.9989L69.2682 30.836Z" fill="#37B6CA"/>
<path d="M77.1362 53.478L79.1951 53.4873C79.1951 53.748 79.1951 54.0071 79.1951 54.2631H77.1269L77.1362 53.478Z" fill="#3D98B0"/>
<path d="M84.7838 56.6956L85.5736 54.6987L86.0592 54.9656L85.5612 57.0338L84.7838 56.6956Z" fill="#557CB9"/>
<path d="M91.4431 27.4303C90.4051 27.1401 89.9816 26.3442 89.7364 25.3853L90.3664 25.2441C90.5432 25.8368 90.7279 26.4233 91.4059 26.6405L91.4431 27.4303Z" fill="#3CADC7"/>
<path d="M11.5346 25.9408L12.931 25.677V26.7972L11.7192 26.9524L11.3934 26.774L11.5346 25.9408Z" fill="#4C90BF"/>
<path d="M11.5346 25.9409L11.3903 26.7803L10.0327 27.1092C9.87754 26.3645 10.1987 26.0325 10.9388 26.0325C11.1395 26.0179 11.3388 25.9873 11.5346 25.9409V25.9409Z" fill="#24D0A4"/>
<path d="M87.9956 29.7422L89.7892 30.2356C89.5233 30.5076 89.2591 30.7797 88.9963 31.0517L87.963 30.6747L87.9956 29.7422Z" fill="#5B5597"/>
<path d="M10.7867 30.8342L12.827 30.6946C12.8162 30.949 12.8038 31.2019 12.7929 31.4564L11.3624 31.3586L10.7867 30.8342Z" fill="#479AC1"/>
<path d="M91.4106 26.6437C90.7325 26.4234 90.5479 25.8369 90.371 25.2473L91.3019 25.0161C91.3392 25.6011 91.3749 26.1239 91.4106 26.6437Z" fill="#2ECED4"/>
<path d="M11.7161 26.9586L12.9279 26.8035C12.9279 27.1681 12.9279 27.5311 12.9279 27.8896L11.7115 27.5792V27.4241L11.7161 26.9586Z" fill="#5D67AD"/>
<path d="M11.7161 26.9585C11.7161 27.1137 11.7161 27.2688 11.7084 27.424L10.0125 27.7436L10.0327 27.1121L11.3903 26.7832L11.7161 26.9585Z" fill="#437699"/>
<path d="M87.963 30.6746L88.9963 31.0516L87.963 32.0043V30.6746Z" fill="#5B71B5"/>
<path d="M11.3624 31.3589L12.7929 31.4566V32.5179L11.3624 31.3589Z" fill="#34C0CC"/>
<path d="M10.0125 27.7405L11.7084 27.4209V27.5761L10.0016 28.507L10.0125 27.7405Z" fill="#50598C"/>
<path d="M37.6226 34.3766L37.953 34.282L37.6226 34.3766Z" fill="#34C0CC"/>
<path d="M70.4412 29.7264L70.0409 29.6069L70.4412 29.7264Z" fill="#3CADC7"/>
<path d="M56.3763 14.1381L56.2444 14.1226C56.2889 14.1129 56.3353 14.1184 56.3763 14.1381V14.1381Z" fill="#5D67AD"/>
<path d="M70.9501 24.6266C70.9317 24.5923 70.9162 24.5565 70.9036 24.5196C70.9036 24.5118 70.9361 24.4932 70.9532 24.4792C70.9642 24.5024 70.9696 24.5277 70.9691 24.5533C70.9686 24.5789 70.9621 24.604 70.9501 24.6266V24.6266Z" fill="#5186BC"/>
<path d="M88.188 25.6799L88.0592 25.8708L88.188 25.6799Z" fill="#544279"/>
<path d="M49.2546 26.4961L49.4098 26.4868L49.2546 26.4961Z" fill="#58346F"/>
<path d="M72.2177 22.7649C72.2177 22.8192 72.2177 22.872 72.2177 22.92C72.2162 22.872 72.2177 22.8192 72.2177 22.7649Z" fill="#50598C"/>
<path d="M59.6485 23.854C59.7525 23.958 59.8549 24.0619 59.9588 24.1643C59.8549 24.0619 59.7525 23.958 59.6485 23.854Z" fill="#5D67AD"/>
<path d="M37.4612 21.9936C37.2812 23.1651 37.7544 24.0867 38.5473 24.8951C38.7223 25.1018 38.8781 25.3241 39.0128 25.5591C38.3921 25.1743 37.7622 24.7833 37.14 24.4017C35.8648 23.5952 34.447 23.0402 32.9632 22.7663C33.3139 21.8788 33.6971 21.0161 34.5148 20.439C35.41 21.1232 36.2386 21.9316 37.4612 21.9936Z" fill="#584D8A"/>
<path d="M70.0533 34.4077C69.8299 33.7405 69.5242 33.0873 69.4156 32.4015C69.3536 32.0105 69.6158 31.5683 69.7259 31.1494C71.2154 31.5885 72.7453 31.1494 74.2255 31.3387C75.8174 31.5404 77.3844 31.9795 78.9391 32.4031C79.7273 32.6172 80.6458 33.6443 80.8863 34.4077H70.0533Z" fill="#2ECED4"/>
<path d="M88.5215 55.2484L89.1189 55.2297L88.5215 55.2484Z" fill="#37B6CA"/>
</svg>
