<svg width="50" height="84" viewBox="0 0 50 84" fill="none" xmlns="http://www.w3.org/2000/svg">
<g clip-path="url(#clip0_116_8529)">
<path d="M24.873 0.333252C25.3022 1.95569 25.7366 3.57552 26.1527 5.20058C26.553 6.77068 26.9377 8.34079 27.3171 9.91089C27.1239 9.97519 26.9351 10.0521 26.7519 10.1412C25.3283 10.9602 23.9126 11.795 22.4865 12.6062C22.1358 12.8077 21.7537 12.9464 21.3848 13.1139C21.8008 11.4862 22.2143 9.86117 22.6356 8.23611C23.3195 5.60183 24.0068 2.96754 24.6977 0.333252H24.873Z" fill="#F9F7F5"/>
<path d="M41.3933 41.3496C42.6782 42.0745 44.0101 42.7418 45.2374 43.5399C46.7866 44.5422 48.2704 45.6334 49.8222 46.7377C45.6875 49.6528 41.8068 52.8899 36.7379 54.1355C39.5118 57.7546 40.1398 61.7243 39.135 66.0552C39.8494 66.1416 40.5062 66.2175 41.163 66.3038C44.2116 66.7147 46.0408 69.1038 45.7948 72.4246C45.6509 74.3741 45.0569 76.219 44.5518 78.0848C44.3058 78.9981 44.0939 79.9166 43.7825 80.8142C43.585 81.4143 43.2926 81.9789 42.9163 82.4864C42.6605 82.8523 42.3133 83.1449 41.9093 83.3349C41.5053 83.525 41.0585 83.6059 40.6135 83.5697C39.674 83.4964 38.7267 83.5069 37.7899 83.4153C37.2037 83.3578 37.0441 83.1301 36.9708 82.5518C36.8792 81.8321 36.7981 81.1125 36.7092 80.3955C36.5853 79.4116 36.4614 78.4285 36.3376 77.4463C36.3387 77.3568 36.3217 77.268 36.2876 77.1852C36.2535 77.1024 36.2031 77.0274 36.1393 76.9646C36.0755 76.9018 35.9997 76.8525 35.9164 76.8197C35.8331 76.7869 35.744 76.7713 35.6546 76.7738C35.317 76.7738 34.9768 76.7319 34.6366 76.7345C34.3749 76.7345 34.2519 76.6613 34.2598 76.3839C34.2755 75.7925 34.2598 75.1984 34.2964 74.6097C34.3095 74.4736 34.5424 74.2381 34.6628 74.2433C35.4018 74.2532 36.1388 74.3241 36.8662 74.4553C38.1746 74.7379 38.7241 75.7349 38.9021 76.957C39.08 78.179 39.2109 79.4534 39.3312 80.7043C39.3705 81.0994 39.5223 81.259 39.9174 81.1989C40.0795 81.1897 40.242 81.1897 40.4041 81.1989C40.5693 81.2101 40.7331 81.1624 40.8663 81.0641C40.9995 80.9659 41.0936 80.8235 41.1316 80.6624C41.8015 78.0901 42.5028 75.5256 43.0969 72.9375C43.2095 72.2356 43.1792 71.5182 43.0079 70.8283C42.7462 69.5487 41.6759 68.7349 40.2864 68.7506C38.4967 68.7933 36.7226 69.0938 35.0187 69.6429C34.757 69.7214 34.5189 69.8156 34.2127 69.9203C34.0949 69.1352 33.9641 68.3816 33.8882 67.6201C33.8882 67.4997 34.0792 67.2982 34.2284 67.2328C34.6052 67.0679 35.0134 66.9711 35.3981 66.8246C35.5772 66.7468 35.7519 66.6595 35.9215 66.5629C35.7097 66.4268 35.4904 66.3028 35.2647 66.1913C32.6059 65.0844 29.9368 64.0036 27.2885 62.8757C26.3229 62.4623 25.3625 62.0907 24.2975 62.2634C23.7298 62.3559 23.1743 62.5112 22.641 62.7266C19.6055 63.9565 16.5778 65.2152 13.5475 66.466C13.2443 66.5879 12.9611 66.7546 12.7075 66.9606C12.7927 66.9829 12.8752 67.0145 12.9535 67.0548C13.6973 67.5092 14.3086 68.1512 14.7261 68.9164C15.1436 69.6816 15.3526 70.5431 15.3322 71.4145C15.3531 74.047 15.395 76.6848 15.2903 79.3147C15.1935 81.7693 13.155 83.5776 10.7004 83.5776C9.6955 83.5776 8.68801 83.5776 7.68314 83.5776C6.02668 83.5776 4.63714 82.8318 3.279 82.0075C3.16551 81.9165 3.07306 81.802 3.00801 81.6719C2.94297 81.5418 2.90686 81.3992 2.90217 81.2538C2.88647 79.6706 2.84199 78.0822 2.9676 76.5095C3.10367 74.7641 4.40424 73.6022 6.17323 73.453C6.5265 73.4242 6.88239 73.4373 7.23828 73.4373H9.75045V76.0201H7.26968C5.73883 76.0201 5.52948 76.2295 5.52687 77.7603C5.52687 78.3805 5.52687 79.0033 5.52687 79.6261C5.52687 80.249 5.64986 80.3929 6.2151 80.6179C7.7381 81.2198 9.29512 81.4344 10.9019 80.9895C12.1187 80.6546 12.6342 79.9716 12.6342 78.7076C12.6342 76.3237 12.6342 73.9397 12.6133 71.5584C12.5976 69.8025 11.6136 68.8238 9.84204 68.7218C8.35044 68.6354 6.93734 68.9835 5.55565 69.4859C5.00088 69.69 4.45658 69.9177 3.84424 70.1584C3.71339 69.478 3.58255 68.8212 3.46479 68.1591C3.40199 67.7928 3.66368 67.6201 3.93844 67.4945C5.8121 66.6283 7.75642 66.0735 9.84727 66.1651C9.96503 66.1651 10.0828 66.1651 10.2005 66.1651C10.2638 66.155 10.3259 66.1392 10.3863 66.118C10.0331 63.9722 9.76353 61.8316 10.2372 59.678C10.4073 59.6021 10.5878 59.5419 10.7606 59.4503C11.6817 58.9269 12.5923 58.3852 13.5213 57.8802C13.6705 57.8399 13.826 57.8293 13.9793 57.8488C13.1419 59.6021 13.0006 61.4783 12.9953 63.4305L14.9632 62.6141C17.5207 61.5673 20.0783 60.5302 22.6358 59.5026C22.8358 59.4452 23.0092 59.3189 23.125 59.146C23.2409 58.9731 23.292 58.7648 23.2691 58.558C23.2455 57.998 23.2691 57.4353 23.2691 56.8727V55.3837L18.8414 55.0095C18.946 54.8682 19.0219 54.6746 19.1632 54.5882C20.1602 53.9968 21.173 53.4316 22.17 52.8402C22.352 52.7041 22.5171 52.5469 22.6619 52.3717C22.8504 52.2828 23.201 52.5602 23.2377 52.1101C23.7061 51.8745 24.1823 51.6443 24.6481 51.4009C25.2055 51.1104 25.7577 50.8069 26.3151 50.5086V52.3534L30.3659 52.0917L30.3869 51.9269L27.4246 49.8936C27.5234 49.7866 27.6331 49.6902 27.7517 49.6057C29.662 48.4962 31.5801 47.3971 33.4878 46.2797C33.9772 45.9919 34.4377 45.6543 34.9114 45.3377L42.1365 45.2932L42.181 45.1074L38.5488 43.3018C38.6575 43.1741 38.7794 43.0583 38.9125 42.9563C39.64 42.522 40.378 42.1085 41.1002 41.6715C41.2132 41.5792 41.312 41.4707 41.3933 41.3496ZM36.4684 63.3572C36.4972 63.0197 36.5286 62.7737 36.5364 62.5251C36.6071 59.7434 35.6075 57.3621 33.8359 55.2634C33.514 54.8839 33.1215 54.8525 32.674 54.8891C30.7445 55.0409 28.815 55.1848 26.8855 55.3209C26.3622 55.3576 26.2837 55.4387 26.281 55.9699C26.281 56.8282 26.2994 57.6865 26.268 58.5423C26.2376 58.7545 26.2861 58.9705 26.4043 59.1494C26.5224 59.3283 26.702 59.4577 26.9091 59.5131C28.5708 60.1647 30.2168 60.8529 31.8811 61.5202C33.3753 62.1273 34.8826 62.724 36.4684 63.3572ZM30.7794 48.4962C31.8759 49.3912 32.9592 50.2573 34.0164 51.1523C34.177 51.3033 34.3744 51.4093 34.5889 51.4599C34.8034 51.5104 35.0274 51.5036 35.2385 51.4401C37.2155 50.9469 39.1174 50.1909 40.8935 49.1923L42.2385 48.4439C41.4587 48.2685 31.0201 48.3366 30.7794 48.4962Z" fill="#F9F7F5"/>
<path d="M13.966 57.828C13.8128 57.8084 13.6572 57.8191 13.508 57.8594C12.5817 58.3827 11.6763 58.9061 10.7473 59.4295C10.5877 59.5211 10.4071 59.5813 10.2239 59.6572C10.5432 57.8018 11.3963 56.1794 12.4116 54.6276C12.5084 54.481 12.6052 54.3345 12.7099 54.1696L10.0486 53.2459C10.1563 53.0702 10.2904 52.9122 10.4463 52.7775C11.1503 52.3535 11.8778 51.9715 12.5843 51.5528C12.7357 51.4304 12.8695 51.2877 12.9821 51.1289C13.126 51.1551 13.2684 51.1892 13.4086 51.2309C14.5417 51.6025 15.4602 51.3565 16.3185 50.4773C17.0513 49.7262 17.9514 49.1401 18.7784 48.4806C18.8752 48.4126 18.9642 48.3367 19.0662 48.2791C20.7201 47.3135 22.3713 46.3453 24.0382 45.4006C24.7657 44.9871 25.5141 44.6155 26.2547 44.2178C26.2547 44.3669 26.2547 44.5135 26.2547 44.66C26.2547 45.2253 26.3541 45.3483 26.9115 45.3483C28.2827 45.3483 29.6514 45.3299 31.0226 45.3326C32.3153 45.3326 33.6106 45.3483 34.9034 45.3587C34.4297 45.6754 33.9691 46.0129 33.4798 46.3008C31.5721 47.4182 29.654 48.5172 27.7437 49.6268C27.625 49.7112 27.5154 49.8077 27.4166 49.9146L26.307 49.2369V50.5244C25.7496 50.8227 25.1975 51.1262 24.6401 51.4167C24.1743 51.6601 23.698 51.8904 23.2296 52.1259V49.3363L23.1119 49.2447L19.0296 51.9767L19.0976 52.118C19.6498 52.152 20.2046 52.1808 20.7593 52.2201C21.39 52.2646 22.0206 52.3221 22.6539 52.3719C22.5091 52.547 22.344 52.7042 22.162 52.8403C21.1649 53.4317 20.1522 53.9969 19.1552 54.5883C19.0139 54.6747 18.938 54.8683 18.8333 55.0096C18.1006 54.9599 17.3653 54.9233 16.6352 54.85C16.4766 54.8178 16.312 54.8332 16.1621 54.8942C16.0122 54.9552 15.8836 55.059 15.7926 55.1928L13.966 57.828Z" fill="#F9F7F5"/>
<path d="M28.2173 66.3953C29.0259 66.3953 29.7874 66.3953 30.5724 66.3953C30.6667 66.3953 30.7896 66.5392 30.8341 66.657C30.8651 66.7703 30.8723 66.8888 30.8551 67.005C30.8551 71.6813 30.8551 76.3576 30.8551 81.0339C30.8745 81.292 30.8081 81.5492 30.6661 81.7655C30.5241 81.9818 30.3145 82.1451 30.07 82.2298C27.1392 83.5592 27.1418 83.5383 23.766 83.5749C22.8508 83.6139 21.9395 83.4345 21.1073 83.0515C19.3776 82.2037 18.4905 80.8167 18.4905 78.9143C18.4643 74.9053 18.4748 70.8937 18.4722 66.8768C18.4722 66.7172 18.4879 66.5549 18.4983 66.3691H21.1361V66.8454C21.1256 70.6468 21.1152 74.4491 21.1047 78.2522C21.1047 79.995 21.9866 80.9764 23.7216 81.1543C25.0219 81.2876 26.3349 81.0914 27.5395 80.5838C28.0969 80.3562 28.2173 80.1913 28.2173 79.5816C28.2173 78.0115 28.2173 76.4152 28.2173 74.832C28.2173 72.1227 28.2173 69.4186 28.2173 66.7198C28.2016 66.6387 28.2094 66.5392 28.2173 66.3953Z" fill="#F9F7F5"/>
<path d="M26.2496 44.2124C25.509 44.6076 24.7606 44.9818 24.0331 45.3952C22.3714 46.3452 20.7202 47.3134 19.0611 48.2738C18.9591 48.3313 18.8701 48.4072 18.7733 48.4753C18.6208 48.4214 18.4628 48.3845 18.3022 48.3654C16.5045 48.3654 14.7093 48.3654 12.9115 48.3654C12.1265 48.3654 11.3414 48.3444 10.5747 48.334C10.6694 48.1934 10.784 48.0674 10.9149 47.9598C12.1422 47.2454 13.38 46.5519 14.6046 45.8296C14.821 45.6713 15.0201 45.4906 15.1987 45.2906H23.2899V41.8154C23.4021 41.7822 23.5115 41.7402 23.617 41.6898C25.2744 40.7477 26.9317 39.7996 28.589 38.8453C28.7409 38.7222 28.874 38.5776 28.9842 38.4161H31.69C31.601 38.0315 31.499 37.5761 31.3943 37.1208C31.5441 37.067 31.6909 37.0049 31.8339 36.935C32.5876 36.5215 33.3386 36.1028 34.0923 35.6868C34.3679 36.7161 34.6418 37.7445 34.914 38.772C34.825 38.895 34.7622 39.0677 34.6523 39.141C33.6055 39.7507 32.5588 40.3343 31.5121 40.9519C31.3134 41.1114 31.1374 41.2971 30.9887 41.504L26.2522 41.224L26.2496 44.2124Z" fill="#F9F7F5"/>
<path d="M14.3114 39.1882L14.6097 39.0416C14.7813 39.0246 14.9496 38.9832 15.1095 38.9187C15.8187 38.5287 16.5095 38.1048 17.2213 37.7175C17.4964 37.5877 17.7796 37.4758 18.0692 37.3826C17.9697 37.7777 17.8729 38.1676 17.763 38.6125L18.6606 38.5392C18.5219 38.7193 18.361 38.8811 18.1817 39.0207C16.3892 40.0674 14.5809 41.0906 12.7884 42.1426C12.422 42.3897 12.0724 42.6607 11.7417 42.9538C11.6448 42.9905 11.5506 43.0297 11.4538 43.0637C10.1454 43.506 8.83696 43.9378 7.68555 44.7464C7.50687 44.9086 7.34789 45.0913 7.2119 45.2907C7.16218 45.3561 7.12293 45.4451 7.05751 45.4843C5.94011 46.1385 4.81487 46.7927 3.7001 47.4391C3.14794 47.7662 2.61149 48.1247 2.06719 48.4675L0.72998 47.4208C0.817665 47.2935 0.924468 47.1805 1.04662 47.0858C2.59841 46.1804 4.15804 45.2854 5.71245 44.3879C8.37988 42.8491 11.0438 41.3061 13.7043 39.7587C13.9274 39.5918 14.131 39.4005 14.3114 39.1882Z" fill="#F9F7F5"/>
<path d="M30.9861 41.504C31.1348 41.2971 31.3108 41.1113 31.5095 40.9518C32.5562 40.3342 33.6029 39.7507 34.6497 39.1409C34.7727 39.0677 34.8355 38.895 34.9113 38.772C35.1724 38.9706 35.4583 39.1342 35.7618 39.2587C37.7123 39.738 39.601 40.4404 41.3906 41.3522C41.3098 41.4791 41.2101 41.5929 41.0949 41.6898C40.3727 42.1268 39.6347 42.5402 38.9073 42.9746C38.7742 43.0766 38.6522 43.1924 38.5435 43.32C36.1108 42.3991 33.5716 41.7889 30.9861 41.504Z" fill="#F9F7F5"/>
<path d="M15.1986 45.2932C15.02 45.4932 14.8209 45.6739 14.6045 45.8323C13.3798 46.5545 12.1421 47.248 10.9148 47.9624C10.7861 48.0688 10.6733 48.193 10.5798 48.3314H7.40821L7.36634 48.5041L8.80561 49.3676C8.72449 49.4828 8.66692 49.6293 8.55701 49.7026C7.9185 50.0847 7.24859 50.4353 6.62316 50.82C6.44583 50.9589 6.28514 51.1179 6.14428 51.2936L3.64258 49.6372C3.95922 49.4488 4.27324 49.2577 4.58988 49.0746C6.44783 47.9964 8.31103 46.9235 10.1611 45.8349C10.3789 45.6763 10.5789 45.4947 10.7578 45.2932H15.1986Z" fill="#F9F7F5"/>
<path d="M14.3115 39.1882C14.1278 39.4011 13.9207 39.5925 13.6939 39.7587C11.0387 41.3114 8.37477 42.8544 5.7021 44.3879C4.1477 45.2855 2.58806 46.1804 1.04674 47.0859C0.926846 47.1794 0.821848 47.2905 0.735333 47.4156L0 46.8661C0.0183179 46.8006 0.0183179 46.7614 0.0366358 46.7483C2.74507 44.6862 5.47705 42.6634 8.54399 41.1482C10.3621 40.2206 12.3047 39.5605 14.3115 39.1882Z" fill="#F9F7F5"/>
<path d="M19.0193 22.1838L19.6264 19.8758C19.823 19.8247 20.0148 19.7564 20.1995 19.6716C22.2668 18.4836 24.3306 17.2894 26.3909 16.0892C27.1132 15.6679 27.8171 15.2178 28.5289 14.7808L28.945 16.3247C28.7659 16.3885 28.5911 16.4636 28.4216 16.5497C27.2126 17.2484 26.0115 17.9628 24.7973 18.6432C24.3315 18.9049 23.8343 19.109 23.3502 19.3393C23.3266 19.1064 23.3109 18.8683 23.269 18.638C23.2348 18.539 23.1863 18.4456 23.1251 18.3606C23.0518 18.4496 22.9367 18.5281 22.9053 18.6223C22.7247 19.2399 22.5599 19.8653 22.3819 20.4881C21.8952 20.721 21.4032 20.9487 20.9217 21.192C20.2937 21.5296 19.6578 21.8567 19.0193 22.1838Z" fill="#F9F7F5"/>
<path d="M28.5236 14.7782C27.8118 15.2178 27.1079 15.6679 26.3857 16.0866C24.3341 17.2903 22.2737 18.4854 20.2047 19.6717C20.02 19.7564 19.8282 19.8247 19.6316 19.8758C19.7991 19.219 19.9692 18.5674 20.1366 17.9105C20.3164 17.8591 20.4915 17.7926 20.66 17.7117C22.6383 16.5733 24.6114 15.4245 26.5898 14.2888C27.0974 13.9984 27.6365 13.7471 28.1442 13.4802L28.5236 14.7782Z" fill="#F9F7F5"/>
<path d="M10.7578 45.2933C10.579 45.4948 10.3789 45.6764 10.1612 45.835C8.31106 46.9236 6.44787 47.9965 4.58991 49.0747C4.27327 49.2578 3.95925 49.4489 3.64261 49.6373L2.07251 48.4676C2.61681 48.1247 3.14018 47.7662 3.69495 47.4365C4.80973 46.7771 5.93497 46.1281 7.05236 45.4817C7.11778 45.4425 7.15703 45.3535 7.20675 45.2881L10.7578 45.2933Z" fill="#F9F7F5"/>
<path d="M6.14429 51.2937C6.28515 51.1179 6.44584 50.9589 6.62317 50.82C7.25906 50.4353 7.93159 50.0847 8.55702 49.7026C8.66692 49.6372 8.72449 49.4828 8.80562 49.3677L12.9926 51.1288C12.88 51.2877 12.7462 51.4303 12.5948 51.5527C11.8883 51.9714 11.1608 52.3535 10.4568 52.7774C10.3009 52.9122 10.1668 53.0702 10.0591 53.2458L6.14429 51.2937Z" fill="#F9F7F5"/>
<path d="M28.152 13.4803C27.6286 13.742 27.1052 14.0037 26.5976 14.2889C24.6192 15.4246 22.6461 16.5734 20.673 17.7117C20.5045 17.7927 20.3294 17.8592 20.1497 17.9106L20.6128 16.139C20.7384 16.1214 20.8609 16.0861 20.9766 16.0343C22.7848 14.9876 24.5878 13.9409 26.3987 12.8941C26.8776 12.6168 27.3852 12.3865 27.8772 12.1353L28.152 13.4803Z" fill="#F9F7F5"/>
<path d="M23.3554 19.3419C23.8396 19.1116 24.3368 18.9127 24.8026 18.651C26.0168 17.9654 27.2179 17.251 28.4269 16.5576C28.5963 16.4714 28.7712 16.3963 28.9502 16.3325L29.3088 17.5651C29.1456 17.6186 28.9857 17.6815 28.8299 17.7535C28.1259 18.1303 27.4272 18.5202 26.7364 18.9049L26.4302 18.0204L26.2785 18.0361V20.2211C26.0168 20.3337 25.7289 20.4279 25.4725 20.564C24.7581 20.9434 24.0541 21.349 23.345 21.7284C23.3476 20.9408 23.3528 20.14 23.3554 19.3419Z" fill="#F9F7F5"/>
<path d="M47.9902 83.6665C46.8649 83.5645 46.3756 83.206 46.2029 82.277C46.1356 81.8618 46.2143 81.4361 46.4256 81.0723C46.6369 80.7086 46.9677 80.4294 47.3618 80.2822C47.7558 80.135 48.1887 80.129 48.5867 80.2651C48.9847 80.4012 49.3232 80.6711 49.5446 81.0288C49.7804 81.3835 49.876 81.8132 49.8126 82.2345C49.7493 82.6557 49.5315 83.0384 49.2018 83.308C48.8852 83.5488 48.4115 83.5488 47.9902 83.6665Z" fill="#F9F7F5"/>
<path d="M27.8773 12.1483C27.3853 12.41 26.8777 12.6298 26.3988 12.9072C24.5879 13.9539 22.7849 15.0006 20.9767 16.0474C20.8563 16.0968 20.7293 16.1285 20.5999 16.1416L20.9819 14.6369C21.2061 14.5682 21.4241 14.4807 21.6335 14.3752C23.2716 13.4331 24.8967 12.4754 26.5349 11.5386C26.8848 11.3642 27.2438 11.2087 27.6104 11.0728L27.8773 12.1483Z" fill="#F9F7F5"/>
<path d="M15.3347 36.2964L16.0805 33.465L17.6506 32.6799L19.5452 31.7039C19.4981 31.8818 19.4484 32.0597 19.4013 32.2272C19.1919 33.0332 18.9826 33.8418 18.7759 34.6478C18.6211 34.6447 18.467 34.6686 18.3205 34.7185C17.4779 35.1947 16.6484 35.6972 15.8057 36.176C15.6552 36.2381 15.4966 36.2786 15.3347 36.2964Z" fill="#F9F7F5"/>
<path d="M15.3347 36.2966C15.4922 36.2776 15.6462 36.2371 15.7927 36.1762C16.6353 35.6973 17.4648 35.1949 18.3075 34.7186C18.454 34.6688 18.6081 34.6448 18.7628 34.648C18.5308 35.5586 18.2996 36.4702 18.0693 37.3826C17.7798 37.4758 17.4966 37.5877 17.2215 37.7175C16.5097 38.1048 15.8188 38.5288 15.1097 38.9187C14.9498 38.9832 14.7815 39.0246 14.6099 39.0417C14.8506 38.1293 15.0922 37.2142 15.3347 36.2966Z" fill="#F9F7F5"/>
<path d="M34.0923 35.6869C33.3386 36.103 32.5876 36.5217 31.834 36.9351C31.6909 37.0051 31.5442 37.0671 31.3943 37.1209L30.6799 34.368C31.062 34.1901 31.465 34.02 31.8287 33.8289C32.3521 33.5673 32.8755 33.3056 33.3988 33.0229L34.0923 35.6869Z" fill="#F9F7F5"/>
<path d="M33.3856 33.0228C32.8623 33.2845 32.3389 33.5671 31.8155 33.8288C31.4387 34.0198 31.0488 34.1899 30.6667 34.3679C30.4452 33.4764 30.2219 32.5841 29.9968 31.6909C30.3475 31.5077 30.6955 31.3193 31.0436 31.1439C31.5826 30.8823 32.1243 30.6206 32.6634 30.3589L33.3856 33.0228Z" fill="#F9F7F5"/>
<path d="M31.2713 25.0259C31.5068 25.9121 31.7432 26.801 31.9805 27.6924C31.6638 27.8416 31.3472 27.9855 31.0358 28.1425C30.4627 28.433 29.8922 28.7313 29.3191 29.0244C29.1046 28.1783 28.8882 27.3331 28.6702 26.4887C28.9711 26.2872 29.259 26.0648 29.5756 25.8921C30.1304 25.5859 30.7061 25.3111 31.2713 25.0259Z" fill="#F9F7F5"/>
<path d="M29.3086 29.0244C29.8817 28.7313 30.4522 28.4329 31.0252 28.1425C31.3366 27.9855 31.6533 27.8415 31.9699 27.6924L32.6712 30.3563C32.1322 30.618 31.5905 30.8797 31.0514 31.1414C30.6981 31.3167 30.3501 31.5051 30.0047 31.6883L29.3086 29.0244Z" fill="#F9F7F5"/>
<path d="M27.6104 11.0805C27.2438 11.2165 26.8848 11.3719 26.5349 11.5463C24.8967 12.4832 23.2717 13.4409 21.6335 14.383C21.4241 14.4885 21.2061 14.576 20.9819 14.6447C21.1154 14.1396 21.2436 13.6346 21.3849 13.1295C21.7539 12.9621 22.136 12.8234 22.4866 12.6219C23.9128 11.8106 25.3285 10.9759 26.7521 10.1568C26.9352 10.0677 27.124 9.99081 27.3173 9.92651C27.4167 10.3033 27.5136 10.6932 27.6104 11.0805Z" fill="#F9F7F5"/>
<path d="M31.2713 25.0258C30.7061 25.311 30.1304 25.5858 29.5756 25.892C29.259 26.0647 28.9711 26.2871 28.6702 26.4886C28.4364 25.5867 28.2044 24.6856 27.9741 23.7854C28.5524 23.4897 29.1255 23.1862 29.7091 22.9035C30.0048 22.7596 30.3214 22.6602 30.6276 22.5398L31.2713 25.0258Z" fill="#F9F7F5"/>
<path d="M19.0193 22.1838C19.6578 21.8567 20.2937 21.5296 20.9348 21.2025C21.4163 20.9591 21.9083 20.7314 22.395 20.4985C22.1857 21.3281 21.9737 22.155 21.7618 22.9845C21.1285 23.309 20.4952 23.6414 19.8593 23.958C19.37 24.204 18.8728 24.4316 18.3782 24.6672C18.5928 23.8402 18.8065 23.0124 19.0193 22.1838Z" fill="#F9F7F5"/>
<path d="M18.3782 24.6699C18.8728 24.4344 19.37 24.2068 19.8593 23.9608C20.4952 23.6441 21.1285 23.3118 21.7618 22.9873L21.1651 25.2954C20.9962 25.332 20.8314 25.3855 20.6731 25.455C20.121 25.7559 19.5845 26.0883 19.0298 26.384C18.6215 26.6038 18.195 26.787 17.7737 26.9858C17.9761 26.213 18.1775 25.441 18.3782 24.6699Z" fill="#F9F7F5"/>
<path d="M19.5321 31.6908L17.6375 32.6669L16.0674 33.452C16.2584 32.7114 16.4468 31.9735 16.6352 31.2329C17.2659 30.9032 17.8966 30.5682 18.5324 30.2411C19.0558 29.9794 19.5661 29.7177 20.0842 29.4561L19.5321 31.6908Z" fill="#F9F7F5"/>
<path d="M17.771 26.9805C18.1923 26.7816 18.6188 26.5984 19.0271 26.3786C19.5818 26.0829 20.1183 25.7506 20.6731 25.4549C20.8323 25.3861 20.998 25.3335 21.1676 25.2979C20.9871 26.0096 20.8039 26.7188 20.6207 27.4306L18.8831 28.3203C18.3153 28.6134 17.7501 28.9117 17.1848 29.2074L17.771 26.9805Z" fill="#F9F7F5"/>
<path d="M17.1822 29.2024C17.7474 28.9067 18.3127 28.6084 18.8805 28.3153L20.6181 27.4255C20.4454 28.1085 20.2701 28.7889 20.0947 29.4719C19.5714 29.7336 19.048 29.9953 18.543 30.257C17.9071 30.5841 17.2764 30.919 16.6458 31.2487L17.1822 29.2024Z" fill="#F9F7F5"/>
<path d="M30.617 22.5397C30.3109 22.66 29.9942 22.7595 29.6985 22.9034C29.115 23.186 28.5419 23.4896 27.9636 23.7853C27.7891 23.1328 27.6146 22.4804 27.4402 21.8279C27.872 21.5871 28.2933 21.3333 28.7486 21.1083C29.2039 20.8832 29.6357 20.7 30.0806 20.4985C30.269 21.1789 30.4469 21.8593 30.617 22.5397Z" fill="#F9F7F5"/>
<path d="M30.0936 20.4986C29.6488 20.7001 29.1961 20.8886 28.7617 21.1084C28.3273 21.3282 27.8981 21.5873 27.4532 21.828C27.3224 21.3046 27.1907 20.7874 27.0581 20.2762C27.6312 19.936 28.1964 19.5801 28.7774 19.2583C29.0613 19.1253 29.3532 19.0099 29.6514 18.9128C29.7979 19.4362 29.9419 19.9596 30.0936 20.4986Z" fill="#F9F7F5"/>
<path d="M29.6514 18.9129C29.3559 19.0102 29.0666 19.1256 28.7852 19.2583C28.2042 19.5802 27.639 19.936 27.0685 20.2762C26.9508 19.8183 26.8304 19.3603 26.7126 18.905C27.414 18.5203 28.1127 18.12 28.8061 17.7536C28.962 17.6816 29.1219 17.6187 29.285 17.5652C29.4124 18.01 29.5345 18.4593 29.6514 18.9129Z" fill="#F9F7F5"/>
<path d="M23.29 41.8153L23.2508 41.3548H19.9038C19.998 41.2239 20.0608 41.046 20.189 40.9701C21.719 40.0734 23.2551 39.1854 24.7973 38.3061C25.2762 38.0314 25.7812 37.8011 26.2732 37.5525L26.3125 38.259L28.9633 38.416C28.8531 38.5775 28.72 38.7221 28.5682 38.8452C26.9196 39.803 25.2622 40.7511 23.5962 41.6897C23.4974 41.7391 23.395 41.7811 23.29 41.8153Z" fill="#F9F7F5"/>
<path d="M18.6607 38.5393L21.5 38.3796C21.1355 38.681 20.7555 38.9631 20.3617 39.2249C19.1161 39.9707 17.8521 40.6851 16.6039 41.4283C16.4574 41.512 16.3762 41.6899 16.2637 41.8417L11.7366 42.9539C12.0673 42.6608 12.417 42.3898 12.7833 42.1427C14.5758 41.0959 16.3841 40.0675 18.1766 39.0208C18.3578 38.8815 18.5204 38.7197 18.6607 38.5393Z" fill="#F9F7F5"/>
<path d="M23.3186 24.3166L23.3422 21.739C24.0513 21.3491 24.7553 20.9539 25.4696 20.5745C25.7313 20.4384 25.993 20.3442 26.2756 20.2317C26.2756 21.1188 26.2756 22.0085 26.2756 22.8956C25.8203 23.1076 25.3597 23.3117 24.907 23.5289C24.3732 23.7854 23.8472 24.0549 23.3186 24.3166Z" fill="#F9F7F5"/>
<path d="M16.2637 41.8416C16.3762 41.7003 16.4573 41.5119 16.6039 41.4281C17.8521 40.6849 19.116 39.9706 20.3616 39.2248C20.7555 38.963 21.1355 38.6808 21.5 38.3795C21.8689 38.3481 22.2353 38.3062 22.6017 38.2879C23.0518 38.2644 23.2245 37.9896 23.248 37.5918C23.2742 37.1051 23.2742 36.6184 23.2847 36.1316C23.8551 35.8359 24.423 35.5324 24.9987 35.2524C25.4148 35.0509 25.8465 34.8782 26.2705 34.6924V37.5526C25.7785 37.8143 25.2735 38.0315 24.7946 38.3062C23.2506 39.1785 21.7146 40.0665 20.1863 40.9702C20.0581 41.0461 19.9953 41.2319 19.9011 41.3549L16.2637 41.8416Z" fill="#F9F7F5"/>
<path d="M26.2705 34.6923C25.8466 34.8781 25.4148 35.0508 24.9987 35.2523C24.423 35.5323 23.8551 35.8358 23.2847 36.1315C23.2847 35.0848 23.2847 34.059 23.2847 33.0227C23.7138 32.782 24.1378 32.536 24.5695 32.3057C25.1348 32.0048 25.7052 31.7169 26.2705 31.4238C26.2722 32.5124 26.2722 33.6019 26.2705 34.6923Z" fill="#F9F7F5"/>
<path d="M26.2732 31.4239C25.7079 31.717 25.1375 32.0049 24.5722 32.3058C24.1404 32.5361 23.7165 32.7821 23.2874 33.0228V30.003C23.4589 29.9757 23.6267 29.9283 23.7872 29.8617C24.4257 29.5032 25.0485 29.1133 25.687 28.7547C25.873 28.6764 26.0669 28.6185 26.2653 28.582L26.2732 31.4239Z" fill="#F9F7F5"/>
<path d="M23.3186 24.3165C23.842 24.0548 24.3654 23.7932 24.9045 23.5315C25.3572 23.3143 25.8177 23.1102 26.2731 22.8982V25.7375C25.8256 25.9416 25.3755 26.1405 24.9306 26.3524C24.3811 26.6141 23.8368 26.8758 23.2925 27.1584L23.3186 24.3165Z" fill="#F9F7F5"/>
<path d="M23.2898 27.1585C23.8341 26.8968 24.3784 26.6142 24.9279 26.3525C25.3728 26.1405 25.8229 25.9417 26.2704 25.7375V28.5951C26.0719 28.6316 25.878 28.6896 25.6921 28.7679C25.0535 29.1264 24.4307 29.5163 23.7922 29.8748C23.6318 29.9414 23.464 29.9889 23.2924 30.0161C23.2898 29.0557 23.2898 28.1058 23.2898 27.1585Z" fill="#F9F7F5"/>
</g>
<defs>
<clipPath id="clip0_116_8529">
<rect width="49.8247" height="83.3333" fill="white" transform="translate(0 0.333252)"/>
</clipPath>
</defs>
</svg>
