<svg id="Layer_1" data-name="Layer 1" xmlns="http://www.w3.org/2000/svg" viewBox="0 0 344.07 500"><defs><style>.cls-1{fill:#f3cc3b;}.cls-2{fill:#b4b4b4;}</style></defs><rect class="cls-1" x="160.4" y="174.77" width="20.95" height="60.77"/><rect class="cls-1" x="120.58" y="174.77" width="20.95" height="60.77"/><rect class="cls-1" x="200.21" y="174.77" width="20.95" height="60.77"/><polygon class="cls-2" points="97.65 425.11 90.53 405.42 247.1 348.08 254.22 367.77 97.65 425.11"/><polygon class="cls-2" points="97.65 467.01 90.53 447.32 247.1 389.99 254.22 409.68 97.65 467.01"/><polygon class="cls-2" points="122.01 500 114.89 480.31 222.74 440.82 229.86 460.51 122.01 500"/><path class="cls-2" d="M339.58,175H318.76v91.39a116.25,116.25,0,0,0,20.82-20Z" transform="translate(-77.97 0)"/><path class="cls-2" d="M250.28,0C155.26,0,78,77.55,78,172.87c0,60.7,32.43,117.58,84.84,149.28l18.49-6.77V175H160.47V295.38C122,266.45,98.79,221,98.79,172.87,98.79,89.1,166.75,21,250.28,21,333.5,21,401.21,89.1,401.21,172.87a152.77,152.77,0,0,1-86.49,137.3L168,363.47l7.07,19.71,147.2-53.48.9-.37C383.22,300.9,422,239.48,422,172.87,422,77.55,345,0,250.28,0Z" transform="translate(-77.97 0)"/></svg>